<?xml version="1.0" standalone="yes"?>
<svg xmlns="http://www.w3.org/2000/svg" width="512" height="512">
<path style="fill:#010101; stroke:none;" d="M0 0L0 512L512 512L512 0L0 0z"/>
<path style="fill:#385701; stroke:none;" d="M226 182L227 182L227 173L310 173L290 172L249 172L228.318 172.603L226 182z"/>
<path style="fill:#76b901; stroke:none;" d="M227 173L227 182C215.787 182.892 191.153 191.655 186.603 203.09C177.853 225.082 207.928 249.442 227 251L227 257L310 257L310 173L227 173z"/>
<path style="fill:#5e9301; stroke:none;" d="M215 184L216 185L215 184M212 185L213 186L212 185z"/>
<path style="fill:#385701; stroke:none;" d="M210 186L211 187L210 186M207.667 187.333L208.333 187.667L207.667 187.333M205.667 188.333L206.333 188.667L205.667 188.333M203.667 189.333L204.333 189.667L203.667 189.333M201.667 190.333L202.333 190.667L201.667 190.333M200 191L201 192L200 191M198.667 192.333L199.333 192.667L198.667 192.333M197 193L198 194L197 193M195 194L196 195L195 194z"/>
<path style="fill:#5e9301; stroke:none;" d="M196 194L197 195L196 194z"/>
<path style="fill:#385701; stroke:none;" d="M194 195L195 196L194 195M192 196L193 197L192 196z"/>
<path style="fill:#5e9301; stroke:none;" d="M193 196L194 197L193 196z"/>
<path style="fill:#385701; stroke:none;" d="M191 197L192 198L191 197M190 198L191 199L190 198M189 199L190 200L189 199M187 200L188 201L187 200M186 201L187 202L186 201M186 218L187 219L186 218M187 220L188 221L187 220M188 222L193 230L188 222z"/>
<path style="fill:#5e9301; stroke:none;" d="M189 223L190 224L189 223M190 225L191 226L190 225M191 227L192 228L191 227M192 228L193 229L192 228M193 230L194 231L193 230M194.333 231.667L194.667 232.333L194.333 231.667M195 233L196 234L195 233M196 234L197 235L196 234M197 235L198 236L197 235M198 236L199 237L198 236M199 237L200 238L199 237M200 238L201 239L200 238M201 239L202 240L201 239M202 240L203 241L202 240M203 241L204 242L203 241M204.667 242.333L205.333 242.667L204.667 242.333M206 243L207 244L206 243z"/>
<path style="fill:#385701; stroke:none;" d="M207 244L208 245L207 244z"/>
<path style="fill:#5e9301; stroke:none;" d="M208 244L209 245L208 244M209 245L210 246L209 245z"/>
<path style="fill:#385701; stroke:none;" d="M209 246L209 247L216 249L216 248L209 246z"/>
<path style="fill:#5e9301; stroke:none;" d="M211 246L212 247L211 246M213 247L214 248L213 247z"/>
<path style="fill:#385701; stroke:none;" d="M216 249L216 250L219 250L216 249M219 250L219 251L223 251L219 250M223 251L223 252L226 252L226 257L227 257L227 251L223 251M227 257C230.485 260.989 239.959 258.762 245 259.424C252.192 260.369 258.894 258.953 266 259.129C280.331 259.483 296.061 262.419 310 258L310 257L261 258L227 257z"/>
<path style="fill:#5e9301; stroke:none;" d="M228 257L228 258L272 258C260.537 253.19 240.48 257 228 257M273 258L273 259L307 258L273 258z"/>
<path style="fill:#fefefe; stroke:none;" d="M165 261L165 336L356 336L356 261L165 261z"/>
</svg>
