<?xml version="1.0" standalone="no"?>
<!DOCTYPE svg PUBLIC "-//W3C//DTD SVG 20010904//EN"
 "http://www.w3.org/TR/2001/REC-SVG-20010904/DTD/svg10.dtd">
<svg version="1.0" xmlns="http://www.w3.org/2000/svg"
 width="406.000000pt" height="246.000000pt" viewBox="0 0 406.000000 246.000000"
 preserveAspectRatio="xMidYMid meet">
<g transform="translate(0.000000,246.000000) scale(0.100000,-0.100000)"
fill="#000000" stroke="none">
<path d="M285 2271 c-48 -22 -79 -54 -100 -103 -13 -33 -15 -148 -15 -940 0
-857 1 -905 19 -943 22 -48 54 -79 103 -100 33 -13 226 -15 1738 -15 1512 0
1705 2 1738 15 49 21 81 52 103 100 18 38 19 86 19 945 0 859 -1 907 -19 945
-22 48 -54 79 -103 100 -33 13 -226 15 -1740 15 -1634 0 -1705 -1 -1743 -19z
m3459 -55 c18 -7 44 -29 57 -47 l24 -34 3 -895 c2 -673 -1 -902 -10 -924 -6
-15 -29 -41 -51 -57 l-40 -29 -1697 0 -1697 0 -40 29 c-22 16 -45 42 -51 57
-9 22 -12 252 -10 926 3 884 3 897 23 924 11 15 36 35 55 45 33 18 99 19 1718
19 1412 0 1688 -2 1716 -14z"/>
<path d="M338 2164 c-60 -32 -58 7 -58 -934 0 -945 -3 -903 60 -935 26 -13
225 -15 1690 -15 1465 0 1664 2 1690 15 63 32 60 -10 60 935 0 945 3 903 -60
935 -26 13 -225 15 -1692 15 -1451 -1 -1666 -3 -1690 -16z m992 -503 l0 -279
-265 -1 -265 -2 0 35 c0 33 -3 36 -37 42 -48 8 -106 38 -156 78 -42 34 -117
141 -117 168 0 39 171 141 262 156 41 7 43 9 46 45 l3 37 265 0 264 0 0 -279z
m447 156 c54 -29 63 -60 64 -209 l1 -133 -51 -3 -51 -3 0 110 c0 61 -5 121
-11 134 -14 32 -49 47 -104 47 l-45 0 0 -145 0 -145 -55 0 -55 0 0 186 0 186
138 -4 c106 -3 144 -7 169 -21z m233 -107 c20 -69 39 -132 42 -140 3 -8 15 19
27 60 13 41 32 105 43 143 l20 67 54 0 c30 0 54 -1 54 -2 0 -2 -27 -84 -59
-183 l-60 -180 -77 0 -78 0 -53 165 c-29 91 -56 173 -59 183 -5 16 0 18 52 15
l58 -3 36 -125z m390 -55 l0 -185 -55 0 -55 0 0 185 0 185 55 0 55 0 0 -185z
m340 160 c54 -31 82 -95 78 -175 -4 -75 -21 -114 -61 -144 -25 -18 -45 -21
-163 -24 l-134 -4 0 187 0 187 123 -3 c100 -3 128 -8 157 -24z m230 -160 l0
-185 -50 0 -50 0 0 185 0 185 50 0 50 0 0 -185z m405 -2 l73 -183 -58 0 c-55
0 -59 1 -69 30 l-10 30 -86 0 -86 0 -10 -30 c-10 -28 -15 -30 -60 -30 -27 0
-49 4 -49 9 0 4 27 77 61 162 34 85 65 164 70 177 8 21 14 23 80 20 l71 -3 73
-182z m-2044 -564 c72 -24 139 -101 139 -159 0 -18 -6 -20 -52 -20 -49 1 -55
3 -73 33 -41 65 -116 72 -159 14 -17 -24 -22 -46 -24 -129 -5 -122 2 -163 33
-194 44 -44 133 -26 155 32 9 22 15 24 69 24 l60 0 -14 -41 c-30 -85 -83 -129
-172 -144 -59 -9 -143 17 -184 57 -52 53 -61 87 -61 238 0 185 19 230 117 276
55 26 113 30 166 13z m349 -213 l5 -218 28 -24 c41 -35 99 -33 138 5 l29 29 0
215 0 214 58 -2 57 -1 0 -220 c0 -232 -3 -250 -54 -308 -70 -80 -252 -80 -322
0 -49 56 -54 79 -57 297 -2 114 -2 214 1 220 3 8 24 12 58 11 l54 -1 5 -217z
m753 198 c83 -42 108 -93 115 -234 8 -178 -21 -262 -108 -306 -40 -21 -59 -23
-182 -24 l-138 0 0 293 0 292 141 -3 c105 -1 148 -6 172 -18z m563 -264 c57
-156 104 -287 104 -292 0 -4 -26 -8 -58 -8 l-58 0 -15 48 -15 47 -105 3 -104
3 -18 -51 -18 -50 -59 0 c-33 0 -60 1 -60 3 0 1 47 130 104 286 109 299 109
300 170 297 28 -1 30 -6 132 -286z"/>
<path d="M800 1851 c0 -14 -10 -21 -37 -26 -73 -14 -193 -93 -193 -128 0 -8
18 -42 40 -76 41 -63 106 -114 161 -126 19 -4 29 -13 29 -25 0 -26 19 -30 99
-19 161 20 396 116 359 146 -18 14 -75 43 -85 43 -5 0 -33 -18 -63 -41 -94
-71 -192 -109 -280 -109 -25 0 -30 4 -30 23 0 17 -10 28 -37 40 -21 10 -45 23
-54 30 -24 18 -69 87 -69 106 0 21 57 59 112 75 36 11 44 18 46 41 3 26 5 27
50 20 56 -8 130 -46 168 -86 l28 -29 -45 -46 c-55 -56 -95 -82 -134 -85 -66
-5 -65 -6 -65 76 0 61 3 75 15 75 17 0 55 -34 72 -65 10 -18 13 -17 46 11 20
16 36 32 36 36 2 17 -82 61 -124 66 -40 4 -45 2 -45 -16 0 -14 -10 -24 -32
-31 -17 -6 -40 -18 -49 -27 -17 -16 -17 -18 2 -56 11 -22 33 -47 49 -56 16 -9
31 -26 32 -37 3 -17 10 -20 51 -18 65 4 146 45 219 113 43 40 58 60 53 72 -11
27 -109 98 -172 124 -74 30 -153 33 -153 5z"/>
<path d="M2566 1751 c-4 -6 -6 -54 -5 -106 l2 -95 39 0 c48 0 94 23 103 51 15
47 7 102 -18 127 -27 27 -109 43 -121 23z"/>
<path d="M2240 799 l0 -191 65 4 c55 3 70 8 93 31 25 26 27 33 30 134 6 175
-17 213 -133 213 l-55 0 0 -191z"/>
</g>
</svg>
