<?xml version="1.0" encoding="UTF-8" standalone="no"?>
<svg
   id="svg"
   version="1.1"
   width="379.68701"
   height="374.96301"
   viewBox="0 0 379.68701 374.96301"
   sodipodi:docname="0a992f3c8da72d71886da4021f82937d.svg"
   xmlns:inkscape="http://www.inkscape.org/namespaces/inkscape"
   xmlns:sodipodi="http://sodipodi.sourceforge.net/DTD/sodipodi-0.dtd"
   xmlns="http://www.w3.org/2000/svg"
   xmlns:svg="http://www.w3.org/2000/svg">
  <defs
     id="defs8" />
  <sodipodi:namedview
     id="namedview6"
     pagecolor="#ffffff"
     bordercolor="#666666"
     borderopacity="1.0"
     inkscape:pageshadow="2"
     inkscape:pageopacity="0.0"
     inkscape:pagecheckerboard="0" />
  <g
     id="svgg"
     transform="translate(-20.313,-8.201)">
    <path
       id="path0"
       d="m 20.313,258.398 v 35.743 h 10.742 10.742 v -26.172 -26.172 h 9.344 9.344 l 0.257,1.172 c 0.237,1.078 0.39,1.172 1.924,1.172 2.005,0 2.959,0.87 2.959,2.701 0,1.052 0.201,1.349 1.158,1.71 1.145,0.432 1.159,0.473 1.269,3.774 0.111,3.32 0.118,3.339 1.186,3.462 l 1.075,0.123 v 19.115 19.115 l 10.058,-0.006 c 5.651,-0.004 10.315,-0.169 10.645,-0.377 0.505,-0.319 0.601,-3.058 0.7,-19.977 l 0.115,-19.607 -1.178,-1.216 -1.179,-1.215 -0.108,-6.047 -0.108,-6.048 -1.27,-0.122 -1.269,-0.122 v -2.319 c 0,-2.317 -0.002,-2.319 -1.172,-2.319 -1.042,0 -1.172,-0.131 -1.172,-1.172 0,-1.042 -0.13,-1.172 -1.172,-1.172 -1.079,0 -1.172,-0.109 -1.172,-1.367 0,-1.259 -0.093,-1.367 -1.172,-1.367 -1.041,0 -1.171,-0.131 -1.171,-1.172 0,-1.032 -0.135,-1.172 -1.13,-1.172 -0.863,0 -1.184,-0.219 -1.362,-0.927 C 76.917,225.306 75.733,225 71.709,225 c -2.895,0 -3.74,-0.371 -3.74,-1.641 0,-0.669 -1.143,-0.703 -23.828,-0.703 H 20.313 v 35.742 m 71.484,-32.226 v 3.516 h 1.157 1.157 l 0.113,3.613 0.112,3.613 1.074,0.124 1.074,0.123 v 3.49 c 0,2.912 0.102,3.49 0.614,3.49 1.265,0 1.73,1.038 1.73,3.86 0,3.019 0.517,4.597 1.622,4.948 0.61,0.193 0.722,0.645 0.722,2.911 0,3.258 0.473,4.687 1.553,4.687 0.73,0 0.791,0.247 0.791,3.242 0,3.336 0.328,4.18 1.625,4.18 0.596,0 0.703,0.457 0.801,3.418 0.112,3.406 0.116,3.418 1.187,3.541 1.07,0.123 1.074,0.135 1.074,3.191 0,3.695 0.197,4.303 1.394,4.303 0.887,0 0.923,0.121 1.032,3.418 l 0.113,3.418 1.27,0.122 1.269,0.123 v 2.319 2.319 h 15.43 15.43 v -2.344 -2.344 h 1.172 1.171 v -3.49 -3.489 l 1.075,-0.124 1.074,-0.123 0.112,-3.614 0.112,-3.613 h 1.158 1.157 v -3.525 c 0,-3.347 0.047,-3.543 0.923,-3.877 1.222,-0.464 1.421,-1.101 1.421,-4.544 0,-2.265 0.123,-2.898 0.563,-2.898 1.163,0 1.78,-1.635 1.78,-4.714 0,-2.994 0.564,-4.27 1.887,-4.27 0.315,0 0.457,-1.09 0.457,-3.516 v -3.515 h 1.172 1.172 v -3.491 -3.491 l 1.269,-0.123 1.27,-0.122 0.112,-3.613 0.113,-3.613 h 1.172 1.172 l -0.112,-3.418 -0.113,-3.418 -10.645,-0.104 -10.644,-0.104 v 1.373 c 0,1.188 -0.126,1.374 -0.935,1.374 -1.259,0 -1.409,0.564 -1.409,5.305 v 4.07 h -1.172 -1.172 v 3.515 3.516 h -1.14 -1.141 l -0.275,3.879 c -0.255,3.593 -0.358,3.96 -1.399,4.956 -1.069,1.025 -1.123,1.24 -1.123,4.493 v 3.417 l -1.074,0.123 c -1.07,0.124 -1.075,0.138 -1.187,3.517 -0.104,3.146 -0.196,3.482 -1.269,4.631 -1.012,1.082 -1.157,1.528 -1.157,3.541 0,2.298 -0.003,2.302 -1.172,2.302 h -1.172 v -3.515 -3.516 H 126.172 125 v -4.687 -4.688 h -1.172 -1.172 v -3.711 -3.711 h -1.172 -1.171 v -4.687 -4.688 h -1.172 -1.172 l -0.046,-3.418 c -0.063,-4.618 -0.332,-5.731 -1.422,-5.886 -0.81,-0.116 -0.876,-0.326 -0.876,-2.807 0,-1.475 -0.171,-3.133 -0.381,-3.684 l -0.381,-1.002 H 103.33 91.797 v 3.516 m 80.859,32.197 v 35.772 h 10.751 10.75 l -0.106,-35.137 c -0.085,-28.177 -0.206,-35.238 -0.613,-35.645 -0.383,-0.383 -2.987,-0.538 -10.644,-0.634 l -10.138,-0.127 v 35.771 m 30.86,0.026 v 35.746 h 23.688 23.688 l 1.102,-1.153 c 0.956,-1.001 1.425,-1.168 3.558,-1.27 2.355,-0.112 2.461,-0.16 2.579,-1.191 0.104,-0.899 0.31,-1.074 1.27,-1.074 1.013,0 1.146,-0.136 1.146,-1.172 0,-1.044 0.129,-1.172 1.181,-1.172 0.904,0 1.27,-0.231 1.556,-0.983 0.206,-0.541 0.816,-1.152 1.357,-1.358 0.683,-0.259 0.984,-0.667 0.984,-1.334 0,-0.757 0.227,-0.986 1.074,-1.084 1.059,-0.122 1.076,-0.167 1.189,-3.196 0.117,-3.122 0.567,-4.154 1.811,-4.154 0.547,0 0.614,-1.663 0.614,-15.43 0,-14.834 -0.029,-15.429 -0.734,-15.429 -1.2,0 -1.566,-0.852 -1.689,-3.924 -0.114,-2.854 -0.138,-2.915 -1.191,-3.036 -0.899,-0.103 -1.074,-0.31 -1.074,-1.269 0,-0.861 -0.183,-1.146 -0.733,-1.146 -0.95,0 -1.453,-0.652 -1.806,-2.344 -0.406,-1.942 -0.812,-2.295 -2.971,-2.582 -1.786,-0.236 -1.912,-0.327 -1.912,-1.375 0,-0.98 -0.145,-1.121 -1.145,-1.121 -0.882,0 -1.173,-0.198 -1.269,-0.863 -0.163,-1.124 -1.222,-1.394 -5.665,-1.442 l -3.588,-0.039 -0.123,-1.074 -0.124,-1.074 -21.387,-0.101 -21.386,-0.101 v 35.745 m 74.088,-35.478 c -0.143,0.143 -0.26,16.227 -0.26,35.742 v 35.482 h 10.742 10.742 v -35.743 -35.742 h -10.482 c -5.765,0 -10.599,0.117 -10.742,0.261 m 54.688,0 c -0.144,0.143 -0.261,0.67 -0.261,1.172 0,0.529 -0.234,0.911 -0.558,0.911 -1.307,0 -1.785,1.158 -1.785,4.325 v 3.097 h -1.172 -1.172 v 3.516 3.515 H 326.172 325 v 2.344 2.344 h -1.172 -1.172 v 3.515 3.516 h -1.172 -1.171 v 2.513 c 0,2.451 -0.027,2.516 -1.075,2.637 -1.07,0.123 -1.074,0.135 -1.187,3.541 l -0.113,3.418 h -1.156 -1.157 v 2.539 c 0,2.264 -0.083,2.539 -0.768,2.539 -1.12,0 -1.576,1.179 -1.576,4.076 V 275 h -1.126 c -1.375,0 -1.595,0.632 -1.603,4.59 l -0.005,2.832 h -1.172 -1.172 v 2.344 c 0,2.069 -0.09,2.343 -0.767,2.343 -1.138,0 -1.577,1.188 -1.577,4.272 v 2.76 h 10.743 10.742 v -2.318 c 0,-2.061 0.097,-2.348 0.879,-2.592 1.288,-0.401 1.452,-0.85 1.459,-3.977 l 0.006,-2.832 h 15.429 15.43 l 0.005,1.465 c 0.009,2.539 0.349,3.222 1.603,3.222 h 1.126 v 3.279 c 0,4.099 -1.137,3.753 12.337,3.753 h 11.101 v -2.507 c 0,-3.043 -0.225,-3.7 -1.421,-4.154 -0.829,-0.316 -0.923,-0.59 -0.923,-2.705 0,-2.347 -0.003,-2.353 -1.157,-2.353 h -1.156 l -0.113,-3.418 c -0.113,-3.407 -0.117,-3.418 -1.187,-3.542 -1.048,-0.12 -1.074,-0.185 -1.074,-2.636 v -2.513 h -1.157 -1.157 l -0.113,-3.418 c -0.112,-3.407 -0.116,-3.419 -1.187,-3.542 -1.037,-0.119 -1.074,-0.203 -1.074,-2.441 0,-1.682 -0.144,-2.318 -0.525,-2.318 -1.183,0 -1.819,-1.384 -1.819,-3.957 0,-2.614 -0.403,-3.465 -1.64,-3.465 -0.598,0 -0.703,-0.346 -0.703,-2.314 0,-2.05 -0.134,-2.447 -1.172,-3.485 -0.955,-0.955 -1.172,-1.498 -1.172,-2.928 0,-2.358 -0.299,-2.992 -1.409,-2.992 -0.87,0 -0.935,-0.146 -0.935,-2.09 0,-2.589 -0.616,-4.446 -1.577,-4.75 -0.592,-0.188 -0.753,-0.692 -0.846,-2.653 -0.116,-2.418 -0.117,-2.421 -1.386,-2.543 l -1.269,-0.123 v -2.319 -2.319 h -13.998 c -7.698,0 -14.114,0.117 -14.257,0.261 m -92.839,19.815 c 0,1.107 0.635,1.409 2.962,1.409 1.657,0 1.726,0.046 1.726,1.172 0,1.037 0.132,1.171 1.152,1.171 1.129,0 1.155,0.046 1.27,2.246 0.11,2.127 0.174,2.253 1.191,2.37 l 1.074,0.124 v 7.174 7.175 l -1.074,0.124 c -1.017,0.117 -1.081,0.243 -1.191,2.369 -0.115,2.201 -0.141,2.247 -1.27,2.247 -1.02,0 -1.152,0.134 -1.152,1.171 0,1.042 -0.131,1.172 -1.172,1.172 -0.858,0 -1.172,0.184 -1.172,0.688 0,1.392 -6.807,2.146 -15.527,1.718 L 225,275 v -16.602 -16.601 h 7.227 7.226 v 0.935 m 107.031,3.539 c 0,2.446 0.583,4.004 1.622,4.334 0.604,0.191 0.722,0.641 0.722,2.742 v 2.512 h 1.172 1.172 v 3.355 3.354 l 1.172,0.442 c 1.564,0.591 1.579,2.096 0.038,3.746 l -1.133,1.213 h -6.048 c -5.707,0 -6.059,-0.044 -6.25,-0.777 -0.112,-0.427 -0.66,-0.95 -1.218,-1.162 -1.404,-0.534 -1.497,-2.749 -0.116,-2.749 1.374,0 1.836,-0.746 1.836,-2.966 0,-1.716 0.181,-2.223 1.172,-3.284 1.023,-1.094 1.172,-1.542 1.172,-3.514 0,-2.051 0.085,-2.282 0.924,-2.492 1.019,-0.256 1.407,-1.635 1.415,-5.029 0.004,-1.8 0.039,-1.855 1.177,-1.855 1.158,0 1.171,0.023 1.171,2.13 m 47.719,40.234 c 0.155,4.768 0.24,4.896 3.408,5.184 l 2.389,0.216 v -4.741 -4.742 h -2.965 -2.965 l 0.133,4.083 m -254.75,53.452 c 0,0.972 -1.325,1.782 -3.126,1.91 -1.59,0.113 -1.768,0.227 -1.88,1.199 -0.115,0.997 -0.758,1.336 -2.123,1.121 -0.161,-0.026 -0.293,0.532 -0.293,1.239 0,1.145 -0.117,1.283 -1.074,1.269 l -1.074,-0.015 -0.11,14.135 -0.109,14.136 1.379,1.378 c 0.758,0.759 1.379,1.614 1.379,1.9 0,0.701 0.799,1.458 1.543,1.462 0.333,0.002 1.253,0.617 2.044,1.367 1.376,1.304 1.564,1.364 4.316,1.364 1.718,0 3.067,0.189 3.347,0.469 0.364,0.364 0.573,0.364 0.937,0 0.297,-0.297 1.79,-0.469 4.07,-0.469 4.255,0 4.837,-0.17 4.837,-1.409 0,-0.778 0.196,-0.935 1.172,-0.935 1.078,0 1.171,-0.108 1.171,-1.367 0,-1.259 0.093,-1.367 1.172,-1.367 h 1.172 v -3.516 -3.515 h -3.485 c -3.319,0 -3.54,0.053 -4.61,1.123 -0.618,0.618 -1.69,1.248 -2.383,1.4 -0.693,0.153 -1.235,0.482 -1.204,0.732 0.157,1.281 -0.085,1.432 -2.295,1.432 -2.15,0 -2.279,-0.056 -2.7,-1.172 -0.291,-0.769 -0.714,-1.172 -1.232,-1.172 -0.57,0 -0.823,-0.297 -0.913,-1.074 -0.103,-0.895 -0.335,-1.095 -1.393,-1.197 l -1.269,-0.122 v -7.592 c 0,-8.046 0.26,-9.155 2.148,-9.155 0.388,0 0.586,-0.388 0.586,-1.146 0,-0.802 0.234,-1.22 0.78,-1.393 0.43,-0.136 0.888,-0.676 1.019,-1.198 0.232,-0.923 0.347,-0.951 3.908,-0.951 h 3.668 v 1.079 c 0,0.745 0.273,1.199 0.879,1.465 0.483,0.212 1.052,0.781 1.265,1.265 0.357,0.815 0.632,0.879 3.823,0.879 h 3.439 l -0.113,-3.418 c -0.112,-3.387 -0.123,-3.419 -1.164,-3.54 -0.812,-0.093 -1.078,-0.36 -1.172,-1.172 -0.094,-0.818 -0.358,-1.077 -1.195,-1.174 -0.9,-0.103 -1.074,-0.309 -1.074,-1.269 0,-1.007 -0.139,-1.146 -1.146,-1.146 -0.96,0 -1.166,-0.175 -1.27,-1.074 l -0.123,-1.075 -5.762,-0.119 c -4.737,-0.098 -5.762,-0.022 -5.762,0.428 m 23.828,17.254 V 375 h 1.121 c 1.046,0 1.135,0.123 1.328,1.832 0.234,2.081 0.907,2.758 3.086,3.107 1.207,0.193 1.474,0.407 1.573,1.26 l 0.119,1.028 8.105,0.105 8.106,0.106 v -1.18 c 0,-1.055 0.126,-1.18 1.191,-1.18 2.301,0 3.441,-0.956 3.729,-3.128 0.242,-1.829 0.329,-1.95 1.384,-1.95 h 1.126 l -0.102,-17.676 -0.102,-17.676 -3.418,-0.112 -3.418,-0.113 v 1.333 c 0,2.119 -0.443,3.775 -1.011,3.775 -1.423,0 -1.795,5.432 -1.732,25.267 0.009,2.774 -0.004,2.808 -1.065,2.93 -0.844,0.097 -1.101,0.354 -1.198,1.198 L 181.979,375 h -3.463 -3.464 l -0.124,-1.074 c -0.097,-0.843 -0.354,-1.101 -1.193,-1.198 l -1.069,-0.123 -0.103,-14.134 -0.102,-14.135 -1.074,-0.124 c -0.983,-0.113 -1.079,-0.27 -1.123,-1.855 -0.027,-0.953 -0.071,-1.952 -0.098,-2.22 -0.034,-0.34 -1.086,-0.523 -3.467,-0.601 l -3.418,-0.113 v 17.788 m 40.235,-16.586 c 0,1.141 -0.382,1.39 -1.843,1.204 -0.367,-0.047 -0.479,4.544 -0.494,20.266 l -0.02,20.327 H 213.08 225 v -1.172 c 0,-0.983 0.154,-1.172 0.956,-1.172 0.995,0 2.95,-1.518 2.95,-2.291 0,-0.244 0.134,-0.443 0.298,-0.443 0.164,0 0.472,-0.396 0.684,-0.879 0.212,-0.484 0.781,-1.053 1.264,-1.265 l 0.879,-0.385 v -12.773 c 0,-13.095 -0.147,-14.522 -1.54,-14.965 -0.605,-0.192 -0.803,-0.585 -0.803,-1.596 0,-1.229 -0.098,-1.34 -1.172,-1.34 -0.976,0 -1.172,-0.157 -1.172,-0.935 0,-1.203 -0.605,-1.409 -4.134,-1.409 h -2.897 v -1.172 -1.172 h -8.399 -8.398 v 1.172 m 46.454,-0.03 c -1.012,1.011 -1.142,1.413 -1.142,3.516 v 2.373 h -1.172 -1.172 v 2.513 c 0,2.452 -0.026,2.517 -1.074,2.637 -1.07,0.123 -1.074,0.135 -1.187,3.542 l -0.113,3.418 h -1.156 -1.157 v 3.515 3.516 h -1.172 -1.172 v 3.516 3.515 h -1.126 c -1.287,0 -1.594,0.674 -1.603,3.52 -0.004,1.334 -0.195,1.879 -0.786,2.249 -2.714,1.695 0.187,4.076 4.77,3.915 l 3.237,-0.113 0.196,-1.435 c 0.108,-0.796 0.672,-1.967 1.269,-2.633 0.591,-0.66 1.074,-1.617 1.074,-2.128 0,-1.339 6.491,-1.963 12.233,-1.176 l 1.795,0.246 0.115,2.391 c 0.115,2.384 0.119,2.391 1.385,2.513 1.12,0.108 1.269,0.259 1.269,1.285 v 1.162 l 3.418,-0.113 3.418,-0.112 0.119,-3.321 c 0.16,-4.457 -0.108,-5.775 -1.206,-5.931 -0.765,-0.109 -0.892,-0.419 -1.089,-2.662 -0.263,-3 -0.567,-3.795 -1.571,-4.114 -0.631,-0.2 -0.745,-0.62 -0.745,-2.749 0,-2.197 -0.092,-2.512 -0.733,-2.512 -1.2,0 -1.567,-0.852 -1.69,-3.924 l -0.116,-2.912 -1.27,-0.123 -1.269,-0.122 v -3.46 -3.46 l -1.172,-0.257 c -1.141,-0.251 -1.172,-0.318 -1.172,-2.57 0,-2.31 -0.002,-2.313 -1.172,-2.313 -1.041,0 -1.172,-0.13 -1.172,-1.172 v -1.172 h -2.373 c -2.103,0 -2.505,0.13 -3.516,1.142 M 220.313,350 c 0,1.042 0.13,1.172 1.171,1.172 h 1.172 v 9.544 9.545 l -1.074,0.123 c -0.836,0.096 -1.101,0.356 -1.195,1.171 -0.126,1.089 -3.575,1.573 -8.375,1.175 l -1.465,-0.121 v -11.89 -11.891 h 4.883 4.883 V 350 m 33.646,10.664 c 1.638,0.892 1.709,1.008 1.823,2.95 l 0.118,2.011 h -2.38 -2.38 l 0.114,-3.212 c 0.13,-3.688 1.734,-5.772 2.314,-3.007 0.136,0.649 0.312,1.216 0.391,1.258"
       stroke="none"
       fill="#fcfcfc"
       fill-rule="evenodd" />
    <path
       id="path1"
       d="m 146.484,19.114 v 10.912 l -1.074,0.124 c -0.769,0.088 -1.11,0.373 -1.199,1.002 -0.105,0.743 -0.365,0.879 -1.673,0.879 -1.773,0 -3.815,0.754 -4.598,1.698 -0.44,0.531 -1.346,0.65 -5.078,0.668 -5.21,0.025 -7.215,0.522 -7.401,1.833 -0.119,0.841 -0.286,0.879 -3.808,0.879 h -3.684 v 1.172 1.172 h -3.516 -3.515 v 1.172 1.172 h -2.578 c -2.361,0 -2.67,0.099 -3.672,1.172 -0.792,0.847 -1.458,1.173 -2.403,1.177 -2.094,0.008 -2.984,0.393 -3.236,1.399 -0.2,0.799 -0.473,0.939 -1.816,0.939 -1.954,0 -3.092,0.574 -3.092,1.557 0,0.637 -0.335,0.766 -2.246,0.865 -2.097,0.11 -2.254,0.185 -2.365,1.14 -0.106,0.912 -0.327,1.047 -2.06,1.252 -2.339,0.277 -2.704,0.474 -2.704,1.459 0,0.571 -0.272,0.759 -1.098,0.759 -0.686,0 -1.535,0.427 -2.265,1.141 -0.728,0.712 -1.675,1.189 -2.516,1.269 -1.119,0.107 -1.368,0.3 -1.466,1.141 -0.1,0.868 -0.379,1.063 -1.95,1.367 -1.436,0.278 -1.944,0.588 -2.345,1.429 -0.388,0.813 -0.792,1.075 -1.663,1.075 -1.018,0 -1.15,0.135 -1.15,1.171 0,1.036 -0.134,1.172 -1.147,1.172 -1.704,0 -3.017,0.618 -3.256,1.533 -0.157,0.6 -0.525,0.811 -1.42,0.811 -1.083,0 -1.209,0.122 -1.209,1.172 0,1.037 -0.132,1.172 -1.15,1.172 -0.87,0 -1.276,0.262 -1.665,1.073 -0.386,0.804 -0.933,1.162 -2.177,1.424 -1.256,0.265 -1.717,0.571 -1.887,1.249 -0.166,0.66 -0.551,0.929 -1.458,1.017 -1.019,0.099 -1.255,0.306 -1.357,1.194 C 53.484,74.825 53.278,75 52.318,75 c -1.013,0 -1.146,0.136 -1.146,1.172 0,1.042 -0.13,1.172 -1.172,1.172 -1.042,0 -1.172,0.13 -1.172,1.172 0,1.041 -0.13,1.172 -1.172,1.172 -0.868,0 -1.172,0.182 -1.172,0.703 0,0.9 -0.74,1.64 -1.64,1.64 -0.64,0 -0.703,0.442 -0.703,4.883 0,4.442 0.063,4.883 0.703,4.883 1.136,0 1.64,0.821 1.64,2.672 0,1.419 0.214,1.94 1.172,2.855 0.815,0.779 1.172,1.494 1.172,2.344 0,0.851 0.358,1.566 1.172,2.344 0.864,0.826 1.172,1.478 1.172,2.484 0,1.25 0.096,1.363 1.153,1.363 1.142,0 1.154,0.025 1.27,2.442 0.11,2.311 0.171,2.448 1.144,2.56 0.861,0.1 1.067,0.364 1.269,1.632 0.149,0.931 0.605,1.798 1.186,2.256 0.519,0.408 1.003,1.256 1.074,1.883 0.105,0.915 0.343,1.166 1.205,1.265 0.848,0.098 1.074,0.326 1.074,1.087 0,0.564 0.283,1.063 0.683,1.205 1.475,0.523 2.051,1.398 2.051,3.114 0,1.625 0.05,1.697 1.172,1.697 1.042,0 1.172,0.13 1.172,1.172 0,1.042 0.13,1.172 1.172,1.172 1.042,0 1.172,0.13 1.172,1.172 0,1.041 0.13,1.172 1.172,1.172 1.041,0 1.172,0.13 1.172,1.171 0,0.722 0.202,1.172 0.525,1.172 0.785,0 1.696,1.204 2.003,2.644 0.179,0.842 0.641,1.468 1.361,1.84 0.599,0.31 1.183,0.92 1.296,1.355 0.114,0.436 0.64,0.957 1.169,1.158 0.528,0.201 1.055,0.728 1.171,1.172 0.116,0.443 0.712,0.995 1.323,1.226 0.612,0.232 1.586,0.937 2.165,1.568 0.624,0.68 1.448,1.147 2.024,1.147 0.771,0 0.999,0.223 1.097,1.074 0.096,0.836 0.355,1.101 1.172,1.195 0.799,0.093 1.108,0.394 1.3,1.27 0.209,0.951 0.448,1.148 1.393,1.148 1.007,0 1.141,0.137 1.141,1.172 0,1.122 0.072,1.172 1.697,1.172 1.682,0 2.991,0.825 2.991,1.886 0,0.252 0.527,0.458 1.172,0.458 1.041,0 1.171,0.13 1.171,1.172 v 1.171 h 2.344 2.344 v 1.172 c 0,1.033 0.134,1.172 1.134,1.172 0.901,0 1.215,0.234 1.531,1.14 0.356,1.021 0.623,1.168 2.577,1.412 1.921,0.24 2.18,0.377 2.18,1.153 0,0.997 1.325,1.361 4.98,1.369 2.017,0.004 2.051,0.023 2.051,1.176 v 1.172 h 2.344 c 2.093,0 2.344,0.085 2.344,0.791 0,1.152 1.467,1.553 5.689,1.553 h 3.686 v 1.172 1.172 h 6.58 c 6.816,-10e-4 7.873,0.253 7.873,1.886 0,0.251 0.527,0.457 1.172,0.457 h 1.171 v 10.742 10.743 h 86.51 c 85.19,0 86.516,-0.012 86.915,-0.757 0.277,-0.519 0.374,-29.82 0.307,-92.872 L 320.117,8.398 233.301,8.3 146.484,8.201 v 10.913 m 7.422,15.994 c 0,1.665 0.781,1.799 11.312,1.941 9.77,0.132 10.029,0.156 10.389,0.964 0.482,1.081 1.596,1.354 5.713,1.401 3.203,0.037 3.398,0.088 3.516,0.916 0.144,1.011 1.259,1.349 4.688,1.421 1.974,0.041 2.232,0.141 2.343,0.909 0.152,1.049 1.218,1.389 4.52,1.442 l 2.441,0.039 v 1.172 c 0,1.17 0.003,1.171 2.318,1.171 2.238,0 2.322,0.037 2.441,1.075 0.117,1.015 0.246,1.08 2.346,1.19 2.09,0.11 2.229,0.179 2.344,1.172 0.105,0.911 0.322,1.072 1.586,1.177 0.945,0.078 1.465,0.317 1.465,0.673 0,0.69 1.981,1.745 3.275,1.745 0.768,0 0.996,0.224 1.094,1.074 0.117,1.017 0.243,1.08 2.369,1.191 2.201,0.115 2.247,0.141 2.247,1.27 0,1.014 0.137,1.152 1.145,1.152 0.96,0 1.166,0.175 1.27,1.074 0.103,0.892 0.337,1.095 1.374,1.196 0.815,0.078 1.333,0.378 1.486,0.86 0.254,0.801 2.229,1.948 3.352,1.948 0.468,0 0.736,0.351 0.819,1.074 0.095,0.82 0.359,1.102 1.119,1.191 0.69,0.08 1.13,0.47 1.431,1.269 0.328,0.868 0.686,1.154 1.446,1.154 0.82,0 1.011,0.186 1.011,0.986 0,0.783 0.241,1.035 1.172,1.221 0.815,0.163 1.171,0.463 1.171,0.987 0,0.478 0.463,0.948 1.27,1.29 0.698,0.295 1.491,0.902 1.761,1.347 0.27,0.445 0.758,0.809 1.084,0.809 0.326,0 0.76,0.443 0.966,0.984 0.206,0.541 0.793,1.143 1.304,1.337 0.512,0.195 1.029,0.732 1.15,1.194 0.121,0.462 0.551,0.927 0.957,1.033 0.406,0.106 0.901,0.75 1.103,1.436 0.246,0.835 0.647,1.283 1.222,1.365 0.598,0.085 0.891,0.436 0.976,1.172 0.095,0.818 0.359,1.077 1.196,1.173 1.707,0.197 1.616,2.806 -0.098,2.806 -1.042,0 -1.172,0.131 -1.172,1.172 0,1.042 -0.13,1.172 -1.172,1.172 -1.041,0 -1.172,0.13 -1.172,1.172 0,1.042 -0.13,1.172 -1.171,1.172 -1.042,0 -1.172,0.13 -1.172,1.172 0,1.041 -0.131,1.172 -1.172,1.172 -1.042,0 -1.172,0.13 -1.172,1.172 0,1.041 -0.13,1.171 -1.172,1.171 -1.042,0 -1.172,0.131 -1.172,1.172 0,1.042 -0.13,1.172 -1.172,1.172 -1.041,0 -1.172,0.13 -1.172,1.172 0,1.044 -0.129,1.172 -1.181,1.172 -0.996,0 -1.218,0.181 -1.412,1.15 -0.176,0.879 -0.473,1.178 -1.26,1.27 -0.796,0.092 -1.057,0.362 -1.153,1.193 -0.083,0.723 -0.351,1.074 -0.819,1.074 -1.137,0 -3.1,1.152 -3.36,1.972 -0.156,0.491 -0.593,0.763 -1.226,0.763 -0.732,0 -1.096,0.296 -1.42,1.153 -0.302,0.799 -0.741,1.189 -1.431,1.27 -0.76,0.088 -1.025,0.37 -1.119,1.19 -0.104,0.9 -0.31,1.074 -1.27,1.074 -1.012,0 -1.145,0.136 -1.145,1.172 0,1.126 -0.069,1.172 -1.73,1.172 -1.768,0 -2.958,0.718 -2.958,1.786 0,0.359 -0.417,0.558 -1.172,0.558 -1.042,0 -1.172,0.13 -1.172,1.172 0,1.034 -0.133,1.172 -1.141,1.172 -0.95,0 -1.183,0.196 -1.398,1.171 -0.235,1.073 -0.396,1.173 -1.886,1.178 -1.91,0.007 -2.403,0.266 -2.775,1.459 -0.184,0.589 -0.581,0.879 -1.206,0.879 -1.335,0 -2.87,0.784 -3.129,1.598 -0.139,0.44 -0.686,0.744 -1.472,0.82 -1.038,0.1 -1.272,0.304 -1.374,1.195 -0.114,0.989 -0.26,1.075 -1.824,1.075 -2.3,0 -2.935,0.304 -2.935,1.408 0,0.844 -0.167,0.935 -1.71,0.935 -2.158,0 -4.565,0.986 -4.824,1.976 -0.169,0.649 -0.551,0.759 -2.643,0.759 -2.404,0 -2.448,0.019 -2.679,1.171 l -0.234,1.172 h -3.312 c -3.553,0 -5.15,0.47 -5.516,1.622 -0.216,0.682 -0.903,0.722 -12.312,0.722 h -12.083 v -3.711 -3.711 h 11.729 11.728 l 0.232,-1.157 0.231,-1.157 3.372,-0.113 c 3.357,-0.111 3.373,-0.117 3.496,-1.186 0.119,-1.037 0.203,-1.074 2.441,-1.074 2.315,0 2.318,-0.002 2.318,-1.172 0,-1.161 0.019,-1.172 2.169,-1.172 2.058,0 2.189,-0.06 2.577,-1.172 0.327,-0.939 0.634,-1.172 1.542,-1.172 0.849,0 1.134,-0.184 1.134,-0.733 0,-1.071 0.767,-1.541 2.742,-1.681 1.582,-0.113 1.762,-0.228 1.874,-1.199 0.103,-0.9 0.309,-1.074 1.269,-1.074 1.013,0 1.146,-0.136 1.146,-1.172 0,-1.006 0.146,-1.172 1.032,-1.172 0.635,0 1.458,-0.446 2.139,-1.158 0.609,-0.637 1.682,-1.307 2.386,-1.488 0.858,-0.221 1.318,-0.597 1.398,-1.141 0.08,-0.543 0.5,-0.888 1.27,-1.041 0.969,-0.194 1.15,-0.417 1.15,-1.412 0,-1.053 0.128,-1.182 1.172,-1.182 1.042,0 1.172,-0.13 1.172,-1.172 0,-1.044 0.129,-1.172 1.182,-1.172 0.995,0 1.217,-0.181 1.411,-1.15 0.176,-0.879 0.473,-1.178 1.26,-1.269 0.796,-0.093 1.058,-0.363 1.153,-1.194 0.098,-0.847 0.327,-1.074 1.084,-1.074 0.755,0 1.011,-0.251 1.195,-1.172 0.182,-0.911 0.443,-1.172 1.172,-1.172 0.734,0 0.989,-0.26 1.178,-1.202 0.149,-0.748 0.57,-1.328 1.113,-1.534 0.479,-0.183 0.986,-0.786 1.125,-1.342 0.14,-0.555 0.777,-1.51 1.417,-2.121 0.701,-0.671 1.163,-1.511 1.163,-2.118 0,-0.807 0.212,-1.03 1.074,-1.13 1.07,-0.123 1.075,-0.138 1.187,-3.507 l 0.112,-3.384 -1.163,-0.255 c -0.891,-0.196 -1.191,-0.501 -1.284,-1.304 -0.094,-0.816 -0.359,-1.076 -1.196,-1.172 -0.899,-0.103 -1.074,-0.31 -1.074,-1.269 0,-1.013 -0.136,-1.146 -1.172,-1.146 -1.041,0 -1.171,-0.13 -1.171,-1.172 0,-1.042 -0.131,-1.172 -1.172,-1.172 -1.042,0 -1.172,-0.13 -1.172,-1.172 0,-1.036 -0.133,-1.172 -1.146,-1.172 -0.96,0 -1.166,-0.174 -1.27,-1.074 -0.096,-0.837 -0.355,-1.101 -1.174,-1.196 -0.812,-0.093 -1.078,-0.359 -1.172,-1.171 -0.1,-0.869 -0.341,-1.072 -1.391,-1.173 -1.116,-0.108 -1.269,-0.261 -1.269,-1.27 0,-1.008 -0.139,-1.147 -1.146,-1.147 -0.96,0 -1.166,-0.175 -1.27,-1.074 -0.117,-1.017 -0.243,-1.081 -2.369,-1.192 -2.201,-0.114 -2.246,-0.14 -2.246,-1.269 0,-1.014 -0.138,-1.152 -1.146,-1.152 -0.96,0 -1.166,-0.175 -1.27,-1.075 -0.113,-0.984 -0.309,-1.102 -2.348,-1.408 -2.013,-0.302 -2.235,-0.432 -2.343,-1.367 -0.108,-0.932 -0.311,-1.052 -2.07,-1.229 -1.65,-0.165 -2.029,-0.36 -2.463,-1.269 -0.474,-0.994 -0.686,-1.074 -2.835,-1.074 -2.32,0 -2.322,-0.002 -2.322,-1.172 0,-1.171 -0.003,-1.172 -2.318,-1.172 -2.238,0 -2.322,-0.037 -2.441,-1.074 -0.123,-1.069 -0.142,-1.075 -3.462,-1.186 -3.301,-0.111 -3.342,-0.125 -3.774,-1.27 l -0.437,-1.158 h -6.165 -6.165 l -1.12,-1.074 c -1.097,-1.051 -1.235,-1.077 -6.565,-1.201 l -5.444,-0.127 V 40.634 37.186 L 150,36.777 c 0.889,-0.31 1.172,-0.649 1.172,-1.405 0,-0.879 0.162,-0.997 1.367,-0.997 1.077,0 1.367,0.156 1.367,0.733 m -9.765,20.947 v 7.226 h -5.811 -5.81 l -0.232,1.157 -0.231,1.156 -3.431,0.113 c -3.42,0.113 -3.431,0.117 -3.554,1.188 -0.116,1.005 -0.244,1.074 -2.002,1.074 -3.029,0 -4.341,0.394 -4.732,1.422 -0.301,0.793 -0.614,0.922 -2.235,0.922 -1.991,0 -2.822,0.483 -2.822,1.64 0,0.493 -0.297,0.703 -0.996,0.703 -1.316,0 -3.301,1.049 -3.301,1.745 0,0.356 -0.52,0.595 -1.464,0.673 -1.272,0.105 -1.482,0.263 -1.589,1.196 -0.096,0.834 -0.33,1.074 -1.049,1.074 -1.47,0 -2.988,0.726 -3.198,1.53 -0.123,0.469 -0.68,0.831 -1.525,0.99 -1.073,0.201 -1.331,0.43 -1.331,1.182 0,0.728 -0.237,0.961 -1.074,1.057 -0.848,0.098 -1.101,0.353 -1.199,1.213 -0.098,0.85 -0.377,1.14 -1.27,1.318 -0.947,0.19 -1.144,0.423 -1.144,1.352 0,0.99 -0.141,1.123 -1.185,1.123 h -1.184 l 0.11,4.59 0.11,4.59 1.074,0.124 c 1.024,0.117 1.075,0.222 1.075,2.227 0,2.385 0.584,3.979 1.572,4.293 0.465,0.147 0.736,0.777 0.879,2.045 0.152,1.353 0.471,2.042 1.221,2.64 0.649,0.518 1.015,1.196 1.015,1.879 0,0.876 0.212,1.112 1.172,1.304 1.073,0.214 1.172,0.369 1.178,1.845 0.007,1.886 0.293,2.444 1.358,2.646 0.509,0.096 0.848,0.551 0.978,1.314 0.157,0.914 0.429,1.194 1.249,1.289 0.81,0.093 1.077,0.36 1.17,1.172 0.095,0.818 0.359,1.077 1.196,1.174 0.9,0.103 1.074,0.31 1.074,1.269 0,0.631 0.176,1.146 0.391,1.146 0.215,0 0.39,0.258 0.39,0.574 0,0.315 0.451,0.809 1.002,1.098 0.551,0.288 1.21,0.939 1.465,1.446 0.255,0.507 0.99,1.091 1.635,1.297 1.418,0.453 2.539,1.377 2.539,2.091 0,0.323 0.451,0.526 1.172,0.526 1.042,0 1.172,0.13 1.172,1.171 0,1.042 0.13,1.172 1.172,1.172 0.992,0 1.172,0.151 1.172,0.986 0,1.127 1.18,1.749 3.319,1.749 1.145,0 1.332,0.139 1.44,1.074 0.113,0.98 0.293,1.091 2.073,1.269 1.651,0.166 2.03,0.361 2.463,1.27 0.474,0.994 0.686,1.074 2.835,1.074 2.189,0 2.323,0.054 2.323,0.935 0,1.212 0.599,1.409 4.283,1.409 2.755,0 3.068,0.078 3.259,0.81 0.117,0.446 0.577,0.906 1.022,1.022 0.765,0.2 0.811,0.483 0.811,5.049 v 4.838 h -2.513 c -2.133,0 -2.549,-0.113 -2.75,-0.749 -0.312,-0.982 -2.155,-1.595 -4.793,-1.595 -1.775,0 -2.16,-0.125 -2.325,-0.757 -0.255,-0.976 -2.043,-1.587 -4.644,-1.587 -1.961,0 -2.07,-0.053 -2.188,-1.074 -0.117,-1.015 -0.245,-1.081 -2.345,-1.191 -2.09,-0.109 -2.229,-0.179 -2.344,-1.172 -0.1,-0.87 -0.341,-1.076 -1.372,-1.176 -0.842,-0.081 -1.332,-0.376 -1.499,-0.901 -0.267,-0.843 -1.64,-1.517 -3.087,-1.517 -0.69,0 -0.957,-0.276 -1.136,-1.172 -0.198,-0.985 -0.419,-1.172 -1.391,-1.172 -0.97,0 -1.175,-0.172 -1.279,-1.074 -0.099,-0.86 -0.35,-1.1 -1.26,-1.204 -0.625,-0.071 -1.649,-0.642 -2.276,-1.269 -0.728,-0.728 -1.543,-1.14 -2.257,-1.14 -0.975,0 -1.132,-0.162 -1.239,-1.27 -0.102,-1.058 -0.302,-1.29 -1.197,-1.393 -0.9,-0.104 -1.074,-0.31 -1.074,-1.27 0,-1.012 -0.136,-1.145 -1.172,-1.145 -1.042,0 -1.172,-0.131 -1.172,-1.172 0,-0.9 -0.176,-1.172 -0.758,-1.172 -0.885,0 -1.242,-0.469 -1.789,-2.344 -0.222,-0.76 -0.771,-1.532 -1.236,-1.738 -0.46,-0.204 -0.989,-0.907 -1.176,-1.563 -0.224,-0.784 -0.629,-1.233 -1.183,-1.313 -0.584,-0.084 -0.879,-0.443 -0.963,-1.172 -0.093,-0.806 -0.361,-1.078 -1.153,-1.169 -0.937,-0.109 -1.057,-0.318 -1.3,-2.262 -0.246,-1.973 -0.358,-2.161 -1.409,-2.371 -0.945,-0.189 -1.142,-0.423 -1.142,-1.351 0,-0.988 -0.142,-1.123 -1.172,-1.123 -1.171,0 -1.172,-0.003 -1.172,-2.318 0,-2.238 -0.037,-2.322 -1.074,-2.442 -1.005,-0.115 -1.082,-0.258 -1.194,-2.216 -0.109,-1.912 -0.219,-2.131 -1.27,-2.527 -1.042,-0.394 -1.149,-0.602 -1.149,-2.224 0,-1.892 -0.497,-2.727 -1.622,-2.727 -0.558,0 -0.705,-0.412 -0.8,-2.246 C 77.155,92.112 77.091,91.986 76.074,91.869 75.038,91.749 75,91.663 75,89.453 c 0,-2.21 0.038,-2.296 1.074,-2.415 0.895,-0.103 1.095,-0.336 1.197,-1.393 0.107,-1.117 0.261,-1.27 1.269,-1.27 1.015,0 1.148,-0.136 1.148,-1.172 0,-1.042 0.13,-1.172 1.171,-1.172 1.042,0 1.172,-0.13 1.172,-1.172 0,-1.041 0.13,-1.171 1.172,-1.171 1.036,0 1.172,-0.134 1.172,-1.146 0,-0.96 0.175,-1.166 1.074,-1.27 0.837,-0.096 1.101,-0.356 1.196,-1.175 0.1,-0.865 0.342,-1.072 1.367,-1.172 1.025,-0.099 1.267,-0.307 1.367,-1.171 0.094,-0.812 0.36,-1.078 1.172,-1.172 0.819,-0.094 1.078,-0.358 1.174,-1.195 0.096,-0.835 0.33,-1.074 1.049,-1.074 1.493,0 2.989,-0.731 3.208,-1.568 0.111,-0.427 0.52,-0.776 0.907,-0.776 1.296,0 1.939,-0.467 1.939,-1.409 0,-0.742 0.206,-0.935 0.996,-0.935 1.315,0 3.301,-1.049 3.301,-1.743 0,-0.336 0.495,-0.599 1.27,-0.674 1.116,-0.107 1.284,-0.275 1.391,-1.392 l 0.123,-1.269 h 2.319 c 2.308,0 2.319,-0.006 2.319,-1.153 0,-1.142 0.024,-1.155 2.441,-1.27 2.34,-0.111 2.447,-0.161 2.565,-1.19 l 0.124,-1.075 h 3.304 3.304 l 0.232,-1.157 0.231,-1.157 3.372,-0.112 c 3.357,-0.112 3.373,-0.118 3.496,-1.187 l 0.123,-1.074 h 5.672 5.672 L 141.526,50 c 0.345,-0.915 0.68,-1.172 1.528,-1.172 h 1.087 v 7.227 m 21.484,10.505 c 0,1.214 0.598,1.409 4.329,1.409 2.465,0 3.093,0.117 3.093,0.576 0,0.75 1.989,1.768 3.455,1.768 0.738,0 1.599,0.419 2.404,1.171 0.884,0.826 1.647,1.172 2.581,1.172 0.907,0 1.326,0.182 1.326,0.576 0,0.715 1.965,1.768 3.3,1.768 0.847,0 0.996,0.176 0.996,1.172 0,1.042 0.131,1.172 1.172,1.172 0.868,0 1.172,0.182 1.172,0.703 0,0.957 0.757,1.641 1.817,1.641 0.483,0 1.044,0.295 1.246,0.655 0.201,0.361 1.045,1.035 1.874,1.498 2.575,1.437 3.243,5.082 0.98,5.344 -0.801,0.093 -1.062,0.362 -1.158,1.194 -0.103,0.9 -0.309,1.074 -1.269,1.074 -1.013,0 -1.146,0.136 -1.146,1.172 0,1.042 -0.13,1.172 -1.172,1.172 -1.042,0 -1.172,0.13 -1.172,1.172 0,1.041 -0.13,1.172 -1.172,1.172 -1.025,0 -1.172,0.138 -1.172,1.1 0,1.021 -0.148,1.127 -2.05,1.465 -1.542,0.274 -2.146,0.58 -2.432,1.231 -0.209,0.477 -0.857,0.972 -1.441,1.1 -0.699,0.154 -1.102,0.524 -1.182,1.086 -0.271,1.903 -2.659,1.377 -2.666,-0.587 -0.007,-1.965 -0.26,-2.456 -1.459,-2.83 C 175.23,96.503 175,96.132 175,95.286 c 0,-1.012 -0.136,-1.145 -1.172,-1.145 -1.125,0 -1.172,-0.069 -1.172,-1.726 0,-2.327 -0.302,-2.962 -1.409,-2.962 -0.778,0 -0.934,-0.196 -0.934,-1.172 0,-1.041 -0.131,-1.172 -1.172,-1.172 -1.042,0 -1.172,-0.13 -1.172,-1.171 0,-0.994 -0.151,-1.172 -0.989,-1.172 -0.601,0 -1.072,-0.269 -1.2,-0.684 -0.421,-1.362 -0.836,-1.858 -1.66,-1.98 -0.461,-0.069 -0.839,-0.364 -0.839,-0.656 0,-1.087 -1.204,-1.758 -3.153,-1.758 -1.77,0 -1.925,-0.076 -1.925,-0.935 0,-1.259 -0.565,-1.409 -5.305,-1.409 h -4.07 v -5.86 -5.859 h 8.399 8.398 v 0.935 m -21.538,35.881 c -0.029,12.515 -0.134,22.315 -0.234,21.778 -0.235,-1.265 -0.727,-1.549 -2.691,-1.557 -1.476,-0.005 -1.631,-0.104 -1.846,-1.178 -0.198,-0.992 -0.415,-1.171 -1.416,-1.171 -0.877,0 -1.181,-0.182 -1.181,-0.704 0,-0.958 -0.758,-1.64 -1.822,-1.64 -0.487,0 -1.073,-0.352 -1.303,-0.781 -0.23,-0.43 -0.643,-0.782 -0.918,-0.782 -0.275,0 -0.793,-0.615 -1.152,-1.367 -0.359,-0.752 -0.905,-1.367 -1.213,-1.367 -0.309,0 -0.677,-0.528 -0.819,-1.172 -0.176,-0.802 -0.556,-1.248 -1.203,-1.41 -0.721,-0.181 -0.945,-0.499 -0.945,-1.341 0,-0.913 -0.185,-1.125 -1.074,-1.227 -0.896,-0.103 -1.095,-0.335 -1.197,-1.393 -0.089,-0.921 -0.317,-1.27 -0.831,-1.27 -1.046,0 -1.517,-0.779 -1.657,-2.742 -0.112,-1.582 -0.227,-1.762 -1.198,-1.873 -1.022,-0.118 -1.074,-0.225 -1.074,-2.205 0,-1.773 -0.174,-2.267 -1.172,-3.336 -1.583,-1.694 -1.681,-3.906 -0.174,-3.906 0.597,0 1.422,-0.453 2.051,-1.126 0.579,-0.62 1.624,-1.415 2.322,-1.768 0.698,-0.353 1.269,-0.901 1.269,-1.218 0,-0.316 0.338,-0.576 0.75,-0.576 1.413,0 1.985,-0.456 1.985,-1.584 0,-1.078 0.066,-1.114 2.246,-1.228 2.126,-0.111 2.253,-0.175 2.37,-1.192 0.121,-1.056 0.167,-1.074 2.832,-1.074 2.676,0 4.271,-0.729 4.271,-1.953 0,-0.22 1.106,-0.39 2.539,-0.39 h 2.539 l -0.054,22.753 m 125.493,8.497 c 0.475,0 0.733,0.277 0.733,0.79 0,0.923 1.358,1.553 3.345,1.553 1.155,0 1.342,0.131 1.342,0.935 0,0.947 0.643,1.409 1.961,1.409 0.399,0 1.303,0.527 2.008,1.172 0.765,0.698 1.711,1.172 2.342,1.172 0.7,0 1.139,0.253 1.296,0.748 0.25,0.788 2.051,1.596 3.558,1.596 0.683,0 0.921,0.251 1.016,1.074 0.117,1.017 0.243,1.08 2.37,1.191 2.2,0.115 2.246,0.141 2.246,1.27 0,0.927 0.172,1.157 0.879,1.177 l 0.879,0.025 -0.879,0.353 c -0.494,0.198 -0.879,0.69 -0.879,1.121 0,0.547 -0.309,0.803 -1.074,0.891 -0.844,0.098 -1.101,0.355 -1.198,1.198 -0.098,0.851 -0.326,1.075 -1.094,1.075 -1.151,0 -3.139,0.961 -3.361,1.625 -0.086,0.258 -0.761,0.672 -1.5,0.919 -1.021,0.342 -1.373,0.7 -1.467,1.492 -0.117,0.986 -0.237,1.042 -2.256,1.042 -2.057,0 -2.14,0.041 -2.367,1.172 -0.222,1.113 -0.331,1.171 -2.172,1.171 -1.795,0 -1.971,0.087 -2.381,1.172 -0.395,1.047 -0.618,1.172 -2.086,1.172 -1.67,0 -2.872,0.739 -2.872,1.766 0,0.382 -0.655,0.573 -2.246,0.656 -2.127,0.111 -2.253,0.174 -2.37,1.191 -0.119,1.036 -0.206,1.075 -2.41,1.075 -2.224,0 -2.294,0.032 -2.545,1.172 -0.246,1.124 -0.342,1.171 -2.349,1.171 -2.58,0 -4.108,0.548 -4.375,1.568 -0.167,0.639 -0.535,0.776 -2.078,0.776 -2.48,0 -3.112,0.286 -3.112,1.409 0,0.893 -0.117,0.935 -2.636,0.94 -3.592,0.007 -4.395,0.265 -4.395,1.408 0,0.867 -0.153,0.934 -2.246,0.977 -3.455,0.071 -4.57,0.407 -4.715,1.421 -0.11,0.776 -0.357,0.879 -2.148,0.899 -3.531,0.039 -5.134,0.469 -5.269,1.413 -0.11,0.771 -0.428,0.86 -3.906,1.099 -4.733,0.326 -5.099,0.431 -5.381,1.557 -0.219,0.872 -0.416,0.922 -4.14,1.049 -3.726,0.127 -3.951,0.184 -4.767,1.207 -0.84,1.055 -0.933,1.074 -5.157,1.074 -4.438,0 -5.24,0.251 -5.24,1.641 0,0.648 -0.492,0.703 -6.275,0.703 -6.488,0 -7.787,0.258 -7.787,1.547 0,0.761 -15.977,1.237 -29.199,0.87 l -4.395,-0.122 v -4.858 -4.859 h 15.404 c 15.913,0 17.409,-0.133 17.409,-1.553 0,-0.751 0.24,-0.791 4.834,-0.791 h 4.834 l 0.231,-1.156 0.231,-1.157 3.431,-0.113 c 3.408,-0.112 3.432,-0.12 3.553,-1.172 0.121,-1.051 0.148,-1.06 3.516,-1.172 3.38,-0.112 3.394,-0.117 3.517,-1.187 0.119,-1.037 0.203,-1.074 2.441,-1.074 2.315,0 2.318,-0.001 2.318,-1.172 0,-1.17 0.002,-1.172 2.322,-1.172 2.149,0 2.361,-0.08 2.835,-1.074 0.428,-0.897 0.821,-1.106 2.381,-1.269 1.501,-0.157 1.963,-0.388 2.35,-1.172 0.326,-0.662 0.856,-1.011 1.644,-1.084 2.414,-0.222 2.921,-0.465 2.921,-1.4 0,-0.801 0.26,-0.947 2.246,-1.262 1.902,-0.301 2.265,-0.491 2.371,-1.235 0.097,-0.683 0.38,-0.879 1.27,-0.879 0.841,0 1.144,-0.186 1.144,-0.703 0,-0.988 0.766,-1.639 1.934,-1.646 2.06,-0.011 2.754,-0.414 2.754,-1.602 0,-1.027 0.121,-1.127 1.367,-1.127 1.259,0 1.367,-0.093 1.367,-1.172 0,-1.147 0.041,-1.171 1.974,-1.171 1.841,0 2,-0.079 2.382,-1.172 0.327,-0.939 0.633,-1.172 1.542,-1.172 0.999,0 1.133,-0.139 1.133,-1.172 0,-1.042 0.131,-1.172 1.172,-1.172 0.805,0 1.172,-0.192 1.172,-0.614 0,-0.929 0.993,-1.73 2.146,-1.73 1.438,0 2.542,-0.673 2.542,-1.55 0,-0.519 0.323,-0.779 1.074,-0.865 0.844,-0.097 1.101,-0.354 1.198,-1.198 0.103,-0.9 0.309,-1.074 1.269,-1.074 1.013,0 1.146,-0.136 1.146,-1.172 0,-1.042 0.13,-1.172 1.172,-1.172 0.875,0 1.172,-0.181 1.172,-0.715 0,-0.711 0.606,-1.117 3.014,-2.022 0.691,-0.26 1.359,-0.793 1.483,-1.186 0.27,-0.849 1.145,-1.152 2.681,-0.928 0.617,0.09 1.452,0.164 1.855,0.164"
       stroke="none"
       fill="#7cbc04"
       fill-rule="evenodd" />
  </g>
</svg>
