<svg id="svg" version="1.1" xmlns="http://www.w3.org/2000/svg" xmlns:xlink="http://www.w3.org/1999/xlink" width="400" height="390.4761904761905" viewBox="0, 0, 400,390.4761904761905"><g id="svgg"><path id="path0" d="M20.313 258.398 L 20.313 294.141 31.055 294.141 L 41.797 294.141 41.797 267.969 L 41.797 241.797 51.141 241.797 L 60.485 241.797 60.742 242.969 C 60.979 244.047,61.132 244.141,62.666 244.141 C 64.671 244.141,65.625 245.011,65.625 246.842 C 65.625 247.894,65.826 248.191,66.783 248.552 C 67.928 248.984,67.942 249.025,68.052 252.326 C 68.163 255.646,68.170 255.665,69.238 255.788 L 70.313 255.911 70.313 275.026 L 70.313 294.141 80.371 294.135 C 86.022 294.131,90.686 293.966,91.016 293.758 C 91.521 293.439,91.617 290.700,91.716 273.781 L 91.831 254.174 90.653 252.958 L 89.474 251.743 89.366 245.696 L 89.258 239.648 87.988 239.526 L 86.719 239.404 86.719 237.085 C 86.719 234.768,86.717 234.766,85.547 234.766 C 84.505 234.766,84.375 234.635,84.375 233.594 C 84.375 232.552,84.245 232.422,83.203 232.422 C 82.124 232.422,82.031 232.313,82.031 231.055 C 82.031 229.796,81.938 229.688,80.859 229.688 C 79.818 229.688,79.688 229.557,79.688 228.516 C 79.688 227.484,79.553 227.344,78.558 227.344 C 77.695 227.344,77.374 227.125,77.196 226.417 C 76.917 225.306,75.733 225.000,71.709 225.000 C 68.814 225.000,67.969 224.629,67.969 223.359 C 67.969 222.690,66.826 222.656,44.141 222.656 L 20.313 222.656 20.313 258.398 M91.797 226.172 L 91.797 229.688 92.954 229.688 L 94.111 229.688 94.224 233.301 L 94.336 236.914 95.410 237.038 L 96.484 237.161 96.484 240.651 C 96.484 243.563,96.586 244.141,97.098 244.141 C 98.363 244.141,98.828 245.179,98.828 248.001 C 98.828 251.020,99.345 252.598,100.450 252.949 C 101.060 253.142,101.172 253.594,101.172 255.860 C 101.172 259.118,101.645 260.547,102.725 260.547 C 103.455 260.547,103.516 260.794,103.516 263.789 C 103.516 267.125,103.844 267.969,105.141 267.969 C 105.737 267.969,105.844 268.426,105.942 271.387 C 106.054 274.793,106.058 274.805,107.129 274.928 C 108.199 275.051,108.203 275.063,108.203 278.119 C 108.203 281.814,108.400 282.422,109.597 282.422 C 110.484 282.422,110.520 282.543,110.629 285.840 L 110.742 289.258 112.012 289.380 L 113.281 289.503 113.281 291.822 L 113.281 294.141 128.711 294.141 L 144.141 294.141 144.141 291.797 L 144.141 289.453 145.313 289.453 L 146.484 289.453 146.484 285.963 L 146.484 282.474 147.559 282.350 L 148.633 282.227 148.745 278.613 L 148.857 275.000 150.015 275.000 L 151.172 275.000 151.172 271.475 C 151.172 268.128,151.219 267.932,152.095 267.598 C 153.317 267.134,153.516 266.497,153.516 263.054 C 153.516 260.789,153.639 260.156,154.079 260.156 C 155.242 260.156,155.859 258.521,155.859 255.442 C 155.859 252.448,156.423 251.172,157.746 251.172 C 158.061 251.172,158.203 250.082,158.203 247.656 L 158.203 244.141 159.375 244.141 L 160.547 244.141 160.547 240.650 L 160.547 237.159 161.816 237.036 L 163.086 236.914 163.198 233.301 L 163.311 229.688 164.483 229.688 L 165.655 229.688 165.543 226.270 L 165.430 222.852 154.785 222.748 L 144.141 222.644 144.141 224.017 C 144.141 225.205,144.015 225.391,143.206 225.391 C 141.947 225.391,141.797 225.955,141.797 230.696 L 141.797 234.766 140.625 234.766 L 139.453 234.766 139.453 238.281 L 139.453 241.797 138.313 241.797 L 137.172 241.797 136.897 245.676 C 136.642 249.269,136.539 249.636,135.498 250.632 C 134.429 251.657,134.375 251.872,134.375 255.125 L 134.375 258.542 133.301 258.665 C 132.231 258.789,132.226 258.803,132.114 262.182 C 132.010 265.328,131.918 265.664,130.845 266.813 C 129.833 267.895,129.688 268.341,129.688 270.354 C 129.688 272.652,129.685 272.656,128.516 272.656 L 127.344 272.656 127.344 269.141 L 127.344 265.625 126.172 265.625 L 125.000 265.625 125.000 260.938 L 125.000 256.250 123.828 256.250 L 122.656 256.250 122.656 252.539 L 122.656 248.828 121.484 248.828 L 120.313 248.828 120.313 244.141 L 120.313 239.453 119.141 239.453 L 117.969 239.453 117.923 236.035 C 117.860 231.417,117.591 230.304,116.501 230.149 C 115.691 230.033,115.625 229.823,115.625 227.342 C 115.625 225.867,115.454 224.209,115.244 223.658 L 114.863 222.656 103.330 222.656 L 91.797 222.656 91.797 226.172 M172.656 258.369 L 172.656 294.141 183.407 294.141 L 194.157 294.141 194.051 259.004 C 193.966 230.827,193.845 223.766,193.438 223.359 C 193.055 222.976,190.451 222.821,182.794 222.725 L 172.656 222.598 172.656 258.369 M203.516 258.395 L 203.516 294.141 227.204 294.141 L 250.892 294.141 251.994 292.988 C 252.950 291.987,253.419 291.820,255.552 291.718 C 257.907 291.606,258.013 291.558,258.131 290.527 C 258.235 289.628,258.441 289.453,259.401 289.453 C 260.414 289.453,260.547 289.317,260.547 288.281 C 260.547 287.237,260.676 287.109,261.728 287.109 C 262.632 287.109,262.998 286.878,263.284 286.126 C 263.490 285.585,264.100 284.974,264.641 284.768 C 265.324 284.509,265.625 284.101,265.625 283.434 C 265.625 282.677,265.852 282.448,266.699 282.350 C 267.758 282.228,267.775 282.183,267.888 279.154 C 268.005 276.032,268.455 275.000,269.699 275.000 C 270.246 275.000,270.313 273.337,270.313 259.570 C 270.313 244.736,270.284 244.141,269.579 244.141 C 268.379 244.141,268.013 243.289,267.890 240.217 C 267.776 237.363,267.752 237.302,266.699 237.181 C 265.800 237.078,265.625 236.871,265.625 235.912 C 265.625 235.051,265.442 234.766,264.892 234.766 C 263.942 234.766,263.439 234.114,263.086 232.422 C 262.680 230.480,262.274 230.127,260.115 229.840 C 258.329 229.604,258.203 229.513,258.203 228.465 C 258.203 227.485,258.058 227.344,257.058 227.344 C 256.176 227.344,255.885 227.146,255.789 226.481 C 255.626 225.357,254.567 225.087,250.124 225.039 L 246.536 225.000 246.413 223.926 L 246.289 222.852 224.902 222.751 L 203.516 222.650 203.516 258.395 M277.604 222.917 C 277.461 223.060,277.344 239.144,277.344 258.659 L 277.344 294.141 288.086 294.141 L 298.828 294.141 298.828 258.398 L 298.828 222.656 288.346 222.656 C 282.581 222.656,277.747 222.773,277.604 222.917 M332.292 222.917 C 332.148 223.060,332.031 223.587,332.031 224.089 C 332.031 224.618,331.797 225.000,331.473 225.000 C 330.166 225.000,329.688 226.158,329.688 229.325 L 329.688 232.422 328.516 232.422 L 327.344 232.422 327.344 235.938 L 327.344 239.453 326.172 239.453 L 325.000 239.453 325.000 241.797 L 325.000 244.141 323.828 244.141 L 322.656 244.141 322.656 247.656 L 322.656 251.172 321.484 251.172 L 320.313 251.172 320.313 253.685 C 320.313 256.136,320.286 256.201,319.238 256.322 C 318.168 256.445,318.164 256.457,318.051 259.863 L 317.938 263.281 316.782 263.281 L 315.625 263.281 315.625 265.820 C 315.625 268.084,315.542 268.359,314.857 268.359 C 313.737 268.359,313.281 269.538,313.281 272.435 L 313.281 275.000 312.155 275.000 C 310.780 275.000,310.560 275.632,310.552 279.590 L 310.547 282.422 309.375 282.422 L 308.203 282.422 308.203 284.766 C 308.203 286.835,308.113 287.109,307.436 287.109 C 306.298 287.109,305.859 288.297,305.859 291.381 L 305.859 294.141 316.602 294.141 L 327.344 294.141 327.344 291.823 C 327.344 289.762,327.441 289.475,328.223 289.231 C 329.511 288.830,329.675 288.381,329.682 285.254 L 329.688 282.422 345.117 282.422 L 360.547 282.422 360.552 283.887 C 360.561 286.426,360.901 287.109,362.155 287.109 L 363.281 287.109 363.281 290.388 C 363.281 294.487,362.144 294.141,375.618 294.141 L 386.719 294.141 386.719 291.634 C 386.719 288.591,386.494 287.934,385.298 287.480 C 384.469 287.164,384.375 286.890,384.375 284.775 C 384.375 282.428,384.372 282.422,383.218 282.422 L 382.062 282.422 381.949 279.004 C 381.836 275.597,381.832 275.586,380.762 275.462 C 379.714 275.342,379.688 275.277,379.688 272.826 L 379.688 270.313 378.531 270.313 L 377.374 270.313 377.261 266.895 C 377.149 263.488,377.145 263.476,376.074 263.353 C 375.037 263.234,375.000 263.150,375.000 260.912 C 375.000 259.230,374.856 258.594,374.475 258.594 C 373.292 258.594,372.656 257.210,372.656 254.637 C 372.656 252.023,372.253 251.172,371.016 251.172 C 370.418 251.172,370.313 250.826,370.313 248.858 C 370.313 246.808,370.179 246.411,369.141 245.373 C 368.186 244.418,367.969 243.875,367.969 242.445 C 367.969 240.087,367.670 239.453,366.560 239.453 C 365.690 239.453,365.625 239.307,365.625 237.363 C 365.625 234.774,365.009 232.917,364.048 232.613 C 363.456 232.425,363.295 231.921,363.202 229.960 C 363.086 227.542,363.085 227.539,361.816 227.417 L 360.547 227.294 360.547 224.975 L 360.547 222.656 346.549 222.656 C 338.851 222.656,332.435 222.773,332.292 222.917 M239.453 242.732 C 239.453 243.839,240.088 244.141,242.415 244.141 C 244.072 244.141,244.141 244.187,244.141 245.313 C 244.141 246.350,244.273 246.484,245.293 246.484 C 246.422 246.484,246.448 246.530,246.563 248.730 C 246.673 250.857,246.737 250.983,247.754 251.100 L 248.828 251.224 248.828 258.398 L 248.828 265.573 247.754 265.697 C 246.737 265.814,246.673 265.940,246.563 268.066 C 246.448 270.267,246.422 270.313,245.293 270.313 C 244.273 270.313,244.141 270.447,244.141 271.484 C 244.141 272.526,244.010 272.656,242.969 272.656 C 242.111 272.656,241.797 272.840,241.797 273.344 C 241.797 274.736,234.990 275.490,226.270 275.062 L 225.000 275.000 225.000 258.398 L 225.000 241.797 232.227 241.797 L 239.453 241.797 239.453 242.732 M346.484 246.271 C 346.484 248.717,347.067 250.275,348.106 250.605 C 348.710 250.796,348.828 251.246,348.828 253.347 L 348.828 255.859 350.000 255.859 L 351.172 255.859 351.172 259.214 L 351.172 262.568 352.344 263.010 C 353.908 263.601,353.923 265.106,352.382 266.756 L 351.249 267.969 345.201 267.969 C 339.494 267.969,339.142 267.925,338.951 267.192 C 338.839 266.765,338.291 266.242,337.733 266.030 C 336.329 265.496,336.236 263.281,337.617 263.281 C 338.991 263.281,339.453 262.535,339.453 260.315 C 339.453 258.599,339.634 258.092,340.625 257.031 C 341.648 255.937,341.797 255.489,341.797 253.517 C 341.797 251.466,341.882 251.235,342.721 251.025 C 343.740 250.769,344.128 249.390,344.136 245.996 C 344.140 244.196,344.175 244.141,345.313 244.141 C 346.471 244.141,346.484 244.164,346.484 246.271 M394.203 286.505 C 394.358 291.273,394.443 291.401,397.611 291.689 L 400.000 291.905 400.000 287.164 L 400.000 282.422 397.035 282.422 L 394.070 282.422 394.203 286.505 M139.453 339.957 C 139.453 340.929,138.128 341.739,136.327 341.867 C 134.737 341.980,134.559 342.094,134.447 343.066 C 134.332 344.063,133.689 344.402,132.324 344.187 C 132.163 344.161,132.031 344.719,132.031 345.426 C 132.031 346.571,131.914 346.709,130.957 346.695 L 129.883 346.680 129.773 360.815 L 129.664 374.951 131.043 376.329 C 131.801 377.088,132.422 377.943,132.422 378.229 C 132.422 378.930,133.221 379.687,133.965 379.691 C 134.298 379.693,135.218 380.308,136.009 381.058 C 137.385 382.362,137.573 382.422,140.325 382.422 C 142.043 382.422,143.392 382.611,143.672 382.891 C 144.036 383.255,144.245 383.255,144.609 382.891 C 144.906 382.594,146.399 382.422,148.679 382.422 C 152.934 382.422,153.516 382.252,153.516 381.013 C 153.516 380.235,153.712 380.078,154.688 380.078 C 155.766 380.078,155.859 379.970,155.859 378.711 C 155.859 377.452,155.952 377.344,157.031 377.344 L 158.203 377.344 158.203 373.828 L 158.203 370.313 154.718 370.313 C 151.399 370.313,151.178 370.366,150.108 371.436 C 149.490 372.054,148.418 372.684,147.725 372.836 C 147.032 372.989,146.490 373.318,146.521 373.568 C 146.678 374.849,146.436 375.000,144.226 375.000 C 142.076 375.000,141.947 374.944,141.526 373.828 C 141.235 373.059,140.812 372.656,140.294 372.656 C 139.724 372.656,139.471 372.359,139.381 371.582 C 139.278 370.687,139.046 370.487,137.988 370.385 L 136.719 370.263 136.719 362.671 C 136.719 354.625,136.979 353.516,138.867 353.516 C 139.255 353.516,139.453 353.128,139.453 352.370 C 139.453 351.568,139.687 351.150,140.233 350.977 C 140.663 350.841,141.121 350.301,141.252 349.779 C 141.484 348.856,141.599 348.828,145.160 348.828 L 148.828 348.828 148.828 349.907 C 148.828 350.652,149.101 351.106,149.707 351.372 C 150.190 351.584,150.759 352.153,150.972 352.637 C 151.329 353.452,151.604 353.516,154.795 353.516 L 158.234 353.516 158.121 350.098 C 158.009 346.711,157.998 346.679,156.957 346.558 C 156.145 346.465,155.879 346.198,155.785 345.386 C 155.691 344.568,155.427 344.309,154.590 344.212 C 153.690 344.109,153.516 343.903,153.516 342.943 C 153.516 341.936,153.377 341.797,152.370 341.797 C 151.410 341.797,151.204 341.622,151.100 340.723 L 150.977 339.648 145.215 339.529 C 140.478 339.431,139.453 339.507,139.453 339.957 M163.281 357.211 L 163.281 375.000 164.402 375.000 C 165.448 375.000,165.537 375.123,165.730 376.832 C 165.964 378.913,166.637 379.590,168.816 379.939 C 170.023 380.132,170.290 380.346,170.389 381.199 L 170.508 382.227 178.613 382.332 L 186.719 382.438 186.719 381.258 C 186.719 380.203,186.845 380.078,187.910 380.078 C 190.211 380.078,191.351 379.122,191.639 376.950 C 191.881 375.121,191.968 375.000,193.023 375.000 L 194.149 375.000 194.047 357.324 L 193.945 339.648 190.527 339.536 L 187.109 339.423 187.109 340.756 C 187.109 342.875,186.666 344.531,186.098 344.531 C 184.675 344.531,184.303 349.963,184.366 369.798 C 184.375 372.572,184.362 372.606,183.301 372.728 C 182.457 372.825,182.200 373.082,182.103 373.926 L 181.979 375.000 178.516 375.000 L 175.052 375.000 174.928 373.926 C 174.831 373.083,174.574 372.825,173.735 372.728 L 172.666 372.605 172.563 358.471 L 172.461 344.336 171.387 344.212 C 170.404 344.099,170.308 343.942,170.264 342.357 C 170.237 341.404,170.193 340.405,170.166 340.137 C 170.132 339.797,169.080 339.614,166.699 339.536 L 163.281 339.423 163.281 357.211 M203.516 340.625 C 203.516 341.766,203.134 342.015,201.673 341.829 C 201.306 341.782,201.194 346.373,201.179 362.095 L 201.159 382.422 213.080 382.422 L 225.000 382.422 225.000 381.250 C 225.000 380.267,225.154 380.078,225.956 380.078 C 226.951 380.078,228.906 378.560,228.906 377.787 C 228.906 377.543,229.040 377.344,229.204 377.344 C 229.368 377.344,229.676 376.948,229.888 376.465 C 230.100 375.981,230.669 375.412,231.152 375.200 L 232.031 374.815 232.031 362.042 C 232.031 348.947,231.884 347.520,230.491 347.077 C 229.886 346.885,229.688 346.492,229.688 345.481 C 229.688 344.252,229.590 344.141,228.516 344.141 C 227.540 344.141,227.344 343.984,227.344 343.206 C 227.344 342.003,226.739 341.797,223.210 341.797 L 220.313 341.797 220.313 340.625 L 220.313 339.453 211.914 339.453 L 203.516 339.453 203.516 340.625 M249.970 340.595 C 248.958 341.606,248.828 342.008,248.828 344.111 L 248.828 346.484 247.656 346.484 L 246.484 346.484 246.484 348.997 C 246.484 351.449,246.458 351.514,245.410 351.634 C 244.340 351.757,244.336 351.769,244.223 355.176 L 244.110 358.594 242.954 358.594 L 241.797 358.594 241.797 362.109 L 241.797 365.625 240.625 365.625 L 239.453 365.625 239.453 369.141 L 239.453 372.656 238.327 372.656 C 237.040 372.656,236.733 373.330,236.724 376.176 C 236.720 377.510,236.529 378.055,235.938 378.425 C 233.224 380.120,236.125 382.501,240.708 382.340 L 243.945 382.227 244.141 380.792 C 244.249 379.996,244.813 378.825,245.410 378.159 C 246.001 377.499,246.484 376.542,246.484 376.031 C 246.484 374.692,252.975 374.068,258.717 374.855 L 260.512 375.101 260.627 377.492 C 260.742 379.876,260.746 379.883,262.012 380.005 C 263.132 380.113,263.281 380.264,263.281 381.290 L 263.281 382.452 266.699 382.339 L 270.117 382.227 270.236 378.906 C 270.396 374.449,270.128 373.131,269.030 372.975 C 268.265 372.866,268.138 372.556,267.941 370.313 C 267.678 367.313,267.374 366.518,266.370 366.199 C 265.739 365.999,265.625 365.579,265.625 363.450 C 265.625 361.253,265.533 360.938,264.892 360.938 C 263.692 360.938,263.325 360.086,263.202 357.014 L 263.086 354.102 261.816 353.979 L 260.547 353.857 260.547 350.397 L 260.547 346.937 259.375 346.680 C 258.234 346.429,258.203 346.362,258.203 344.110 C 258.203 341.800,258.201 341.797,257.031 341.797 C 255.990 341.797,255.859 341.667,255.859 340.625 L 255.859 339.453 253.486 339.453 C 251.383 339.453,250.981 339.583,249.970 340.595 M220.313 350.000 C 220.313 351.042,220.443 351.172,221.484 351.172 L 222.656 351.172 222.656 360.716 L 222.656 370.261 221.582 370.384 C 220.746 370.480,220.481 370.740,220.387 371.555 C 220.261 372.644,216.812 373.128,212.012 372.730 L 210.547 372.609 210.547 360.719 L 210.547 348.828 215.430 348.828 L 220.313 348.828 220.313 350.000 M253.959 360.664 C 255.597 361.556,255.668 361.672,255.782 363.614 L 255.900 365.625 253.520 365.625 L 251.140 365.625 251.254 362.413 C 251.384 358.725,252.988 356.641,253.568 359.406 C 253.704 360.055,253.880 360.622,253.959 360.664 " stroke="none" fill="#fcfcfc" fill-rule="evenodd"></path><path id="path1" d="M146.484 19.114 L 146.484 30.026 145.410 30.150 C 144.641 30.238,144.300 30.523,144.211 31.152 C 144.106 31.895,143.846 32.031,142.538 32.031 C 140.765 32.031,138.723 32.785,137.940 33.729 C 137.500 34.260,136.594 34.379,132.862 34.397 C 127.652 34.422,125.647 34.919,125.461 36.230 C 125.342 37.071,125.175 37.109,121.653 37.109 L 117.969 37.109 117.969 38.281 L 117.969 39.453 114.453 39.453 L 110.938 39.453 110.938 40.625 L 110.938 41.797 108.360 41.797 C 105.999 41.797,105.690 41.896,104.688 42.969 C 103.896 43.816,103.230 44.142,102.285 44.146 C 100.191 44.154,99.301 44.539,99.049 45.545 C 98.849 46.344,98.576 46.484,97.233 46.484 C 95.279 46.484,94.141 47.058,94.141 48.041 C 94.141 48.678,93.806 48.807,91.895 48.906 C 89.798 49.016,89.641 49.091,89.530 50.046 C 89.424 50.958,89.203 51.093,87.470 51.298 C 85.131 51.575,84.766 51.772,84.766 52.757 C 84.766 53.328,84.494 53.516,83.668 53.516 C 82.982 53.516,82.133 53.943,81.403 54.657 C 80.675 55.369,79.728 55.846,78.887 55.926 C 77.768 56.033,77.519 56.226,77.421 57.067 C 77.321 57.935,77.042 58.130,75.471 58.434 C 74.035 58.712,73.527 59.022,73.126 59.863 C 72.738 60.676,72.334 60.938,71.463 60.938 C 70.445 60.938,70.313 61.073,70.313 62.109 C 70.313 63.145,70.179 63.281,69.166 63.281 C 67.462 63.281,66.149 63.899,65.910 64.814 C 65.753 65.414,65.385 65.625,64.490 65.625 C 63.407 65.625,63.281 65.747,63.281 66.797 C 63.281 67.834,63.149 67.969,62.131 67.969 C 61.261 67.969,60.855 68.231,60.466 69.042 C 60.080 69.846,59.533 70.204,58.289 70.466 C 57.033 70.731,56.572 71.037,56.402 71.715 C 56.236 72.375,55.851 72.644,54.944 72.732 C 53.925 72.831,53.689 73.038,53.587 73.926 C 53.484 74.825,53.278 75.000,52.318 75.000 C 51.305 75.000,51.172 75.136,51.172 76.172 C 51.172 77.214,51.042 77.344,50.000 77.344 C 48.958 77.344,48.828 77.474,48.828 78.516 C 48.828 79.557,48.698 79.688,47.656 79.688 C 46.788 79.688,46.484 79.870,46.484 80.391 C 46.484 81.291,45.744 82.031,44.844 82.031 C 44.204 82.031,44.141 82.473,44.141 86.914 C 44.141 91.356,44.204 91.797,44.844 91.797 C 45.980 91.797,46.484 92.618,46.484 94.469 C 46.484 95.888,46.698 96.409,47.656 97.324 C 48.471 98.103,48.828 98.818,48.828 99.668 C 48.828 100.519,49.186 101.234,50.000 102.012 C 50.864 102.838,51.172 103.490,51.172 104.496 C 51.172 105.746,51.268 105.859,52.325 105.859 C 53.467 105.859,53.479 105.884,53.595 108.301 C 53.705 110.612,53.766 110.749,54.739 110.861 C 55.600 110.961,55.806 111.225,56.008 112.493 C 56.157 113.424,56.613 114.291,57.194 114.749 C 57.713 115.157,58.197 116.005,58.268 116.632 C 58.373 117.547,58.611 117.798,59.473 117.897 C 60.321 117.995,60.547 118.223,60.547 118.984 C 60.547 119.548,60.830 120.047,61.230 120.189 C 62.705 120.712,63.281 121.587,63.281 123.303 C 63.281 124.928,63.331 125.000,64.453 125.000 C 65.495 125.000,65.625 125.130,65.625 126.172 C 65.625 127.214,65.755 127.344,66.797 127.344 C 67.839 127.344,67.969 127.474,67.969 128.516 C 67.969 129.557,68.099 129.688,69.141 129.688 C 70.182 129.688,70.313 129.818,70.313 130.859 C 70.313 131.581,70.515 132.031,70.838 132.031 C 71.623 132.031,72.534 133.235,72.841 134.675 C 73.020 135.517,73.482 136.143,74.202 136.515 C 74.801 136.825,75.385 137.435,75.498 137.870 C 75.612 138.306,76.138 138.827,76.667 139.028 C 77.195 139.229,77.722 139.756,77.838 140.200 C 77.954 140.643,78.550 141.195,79.161 141.426 C 79.773 141.658,80.747 142.363,81.326 142.994 C 81.950 143.674,82.774 144.141,83.350 144.141 C 84.121 144.141,84.349 144.364,84.447 145.215 C 84.543 146.051,84.802 146.316,85.619 146.410 C 86.418 146.503,86.727 146.804,86.919 147.680 C 87.128 148.631,87.367 148.828,88.312 148.828 C 89.319 148.828,89.453 148.965,89.453 150.000 C 89.453 151.122,89.525 151.172,91.150 151.172 C 92.832 151.172,94.141 151.997,94.141 153.058 C 94.141 153.310,94.668 153.516,95.313 153.516 C 96.354 153.516,96.484 153.646,96.484 154.688 L 96.484 155.859 98.828 155.859 L 101.172 155.859 101.172 157.031 C 101.172 158.064,101.306 158.203,102.306 158.203 C 103.207 158.203,103.521 158.437,103.837 159.343 C 104.193 160.364,104.460 160.511,106.414 160.755 C 108.335 160.995,108.594 161.132,108.594 161.908 C 108.594 162.905,109.919 163.269,113.574 163.277 C 115.591 163.281,115.625 163.300,115.625 164.453 L 115.625 165.625 117.969 165.625 C 120.062 165.625,120.313 165.710,120.313 166.416 C 120.313 167.568,121.780 167.969,126.002 167.969 L 129.688 167.969 129.688 169.141 L 129.688 170.313 136.268 170.313 C 143.084 170.312,144.141 170.566,144.141 172.199 C 144.141 172.450,144.668 172.656,145.313 172.656 L 146.484 172.656 146.484 183.398 L 146.484 194.141 232.994 194.141 C 318.184 194.141,319.510 194.129,319.909 193.384 C 320.186 192.865,320.283 163.564,320.216 100.512 L 320.117 8.398 233.301 8.300 L 146.484 8.201 146.484 19.114 M153.906 35.108 C 153.906 36.773,154.687 36.907,165.218 37.049 C 174.988 37.181,175.247 37.205,175.607 38.013 C 176.089 39.094,177.203 39.367,181.320 39.414 C 184.523 39.451,184.718 39.502,184.836 40.330 C 184.980 41.341,186.095 41.679,189.524 41.751 C 191.498 41.792,191.756 41.892,191.867 42.660 C 192.019 43.709,193.085 44.049,196.387 44.102 L 198.828 44.141 198.828 45.313 C 198.828 46.483,198.831 46.484,201.146 46.484 C 203.384 46.484,203.468 46.521,203.587 47.559 C 203.704 48.574,203.833 48.639,205.933 48.749 C 208.023 48.859,208.162 48.928,208.277 49.921 C 208.382 50.832,208.599 50.993,209.863 51.098 C 210.808 51.176,211.328 51.415,211.328 51.771 C 211.328 52.461,213.309 53.516,214.603 53.516 C 215.371 53.516,215.599 53.740,215.697 54.590 C 215.814 55.607,215.940 55.670,218.066 55.781 C 220.267 55.896,220.313 55.922,220.313 57.051 C 220.313 58.065,220.450 58.203,221.458 58.203 C 222.418 58.203,222.624 58.378,222.728 59.277 C 222.831 60.169,223.065 60.372,224.102 60.473 C 224.917 60.551,225.435 60.851,225.588 61.333 C 225.842 62.134,227.817 63.281,228.940 63.281 C 229.408 63.281,229.676 63.632,229.759 64.355 C 229.854 65.175,230.118 65.457,230.878 65.546 C 231.568 65.626,232.008 66.016,232.309 66.815 C 232.637 67.683,232.995 67.969,233.755 67.969 C 234.575 67.969,234.766 68.155,234.766 68.955 C 234.766 69.738,235.007 69.990,235.938 70.176 C 236.753 70.339,237.109 70.639,237.109 71.163 C 237.109 71.641,237.572 72.111,238.379 72.453 C 239.077 72.748,239.870 73.355,240.140 73.800 C 240.410 74.245,240.898 74.609,241.224 74.609 C 241.550 74.609,241.984 75.052,242.190 75.593 C 242.396 76.134,242.983 76.736,243.494 76.930 C 244.006 77.125,244.523 77.662,244.644 78.124 C 244.765 78.586,245.195 79.051,245.601 79.157 C 246.007 79.263,246.502 79.907,246.704 80.593 C 246.950 81.428,247.351 81.876,247.926 81.958 C 248.524 82.043,248.817 82.394,248.902 83.130 C 248.997 83.948,249.261 84.207,250.098 84.303 C 251.805 84.500,251.714 87.109,250.000 87.109 C 248.958 87.109,248.828 87.240,248.828 88.281 C 248.828 89.323,248.698 89.453,247.656 89.453 C 246.615 89.453,246.484 89.583,246.484 90.625 C 246.484 91.667,246.354 91.797,245.313 91.797 C 244.271 91.797,244.141 91.927,244.141 92.969 C 244.141 94.010,244.010 94.141,242.969 94.141 C 241.927 94.141,241.797 94.271,241.797 95.313 C 241.797 96.354,241.667 96.484,240.625 96.484 C 239.583 96.484,239.453 96.615,239.453 97.656 C 239.453 98.698,239.323 98.828,238.281 98.828 C 237.240 98.828,237.109 98.958,237.109 100.000 C 237.109 101.044,236.980 101.172,235.928 101.172 C 234.932 101.172,234.710 101.353,234.516 102.322 C 234.340 103.201,234.043 103.500,233.256 103.592 C 232.460 103.684,232.199 103.954,232.103 104.785 C 232.020 105.508,231.752 105.859,231.284 105.859 C 230.147 105.859,228.184 107.011,227.924 107.831 C 227.768 108.322,227.331 108.594,226.698 108.594 C 225.966 108.594,225.602 108.890,225.278 109.747 C 224.976 110.546,224.537 110.936,223.847 111.017 C 223.087 111.105,222.822 111.387,222.728 112.207 C 222.624 113.107,222.418 113.281,221.458 113.281 C 220.446 113.281,220.313 113.417,220.313 114.453 C 220.313 115.579,220.244 115.625,218.583 115.625 C 216.815 115.625,215.625 116.343,215.625 117.411 C 215.625 117.770,215.208 117.969,214.453 117.969 C 213.411 117.969,213.281 118.099,213.281 119.141 C 213.281 120.175,213.148 120.313,212.140 120.313 C 211.190 120.313,210.957 120.509,210.742 121.484 C 210.507 122.557,210.346 122.657,208.856 122.662 C 206.946 122.669,206.453 122.928,206.081 124.121 C 205.897 124.710,205.500 125.000,204.875 125.000 C 203.540 125.000,202.005 125.784,201.746 126.598 C 201.607 127.038,201.060 127.342,200.274 127.418 C 199.236 127.518,199.002 127.722,198.900 128.613 C 198.786 129.602,198.640 129.688,197.076 129.688 C 194.776 129.688,194.141 129.992,194.141 131.096 C 194.141 131.940,193.974 132.031,192.431 132.031 C 190.273 132.031,187.866 133.017,187.607 134.007 C 187.438 134.656,187.056 134.766,184.964 134.766 C 182.560 134.766,182.516 134.785,182.285 135.937 L 182.051 137.109 178.739 137.109 C 175.186 137.109,173.589 137.579,173.223 138.731 C 173.007 139.413,172.320 139.453,160.911 139.453 L 148.828 139.453 148.828 135.742 L 148.828 132.031 160.557 132.031 L 172.285 132.031 172.517 130.874 L 172.748 129.717 176.120 129.604 C 179.477 129.493,179.493 129.487,179.616 128.418 C 179.735 127.381,179.819 127.344,182.057 127.344 C 184.372 127.344,184.375 127.342,184.375 126.172 C 184.375 125.011,184.394 125.000,186.544 125.000 C 188.602 125.000,188.733 124.940,189.121 123.828 C 189.448 122.889,189.755 122.656,190.663 122.656 C 191.512 122.656,191.797 122.472,191.797 121.923 C 191.797 120.852,192.564 120.382,194.539 120.242 C 196.121 120.129,196.301 120.014,196.413 119.043 C 196.516 118.143,196.722 117.969,197.682 117.969 C 198.695 117.969,198.828 117.833,198.828 116.797 C 198.828 115.791,198.974 115.625,199.860 115.625 C 200.495 115.625,201.318 115.179,201.999 114.467 C 202.608 113.830,203.681 113.160,204.385 112.979 C 205.243 112.758,205.703 112.382,205.783 111.838 C 205.863 111.295,206.283 110.950,207.053 110.797 C 208.022 110.603,208.203 110.380,208.203 109.385 C 208.203 108.332,208.331 108.203,209.375 108.203 C 210.417 108.203,210.547 108.073,210.547 107.031 C 210.547 105.987,210.676 105.859,211.729 105.859 C 212.724 105.859,212.946 105.678,213.140 104.709 C 213.316 103.830,213.613 103.531,214.400 103.440 C 215.196 103.347,215.458 103.077,215.553 102.246 C 215.651 101.399,215.880 101.172,216.637 101.172 C 217.392 101.172,217.648 100.921,217.832 100.000 C 218.014 99.089,218.275 98.828,219.004 98.828 C 219.738 98.828,219.993 98.568,220.182 97.626 C 220.331 96.878,220.752 96.298,221.295 96.092 C 221.774 95.909,222.281 95.306,222.420 94.750 C 222.560 94.195,223.197 93.240,223.837 92.629 C 224.538 91.958,225.000 91.118,225.000 90.511 C 225.000 89.704,225.212 89.481,226.074 89.381 C 227.144 89.258,227.149 89.243,227.261 85.874 L 227.373 82.490 226.210 82.235 C 225.319 82.039,225.019 81.734,224.926 80.931 C 224.832 80.115,224.567 79.855,223.730 79.759 C 222.831 79.656,222.656 79.449,222.656 78.490 C 222.656 77.477,222.520 77.344,221.484 77.344 C 220.443 77.344,220.313 77.214,220.313 76.172 C 220.313 75.130,220.182 75.000,219.141 75.000 C 218.099 75.000,217.969 74.870,217.969 73.828 C 217.969 72.792,217.836 72.656,216.823 72.656 C 215.863 72.656,215.657 72.482,215.553 71.582 C 215.457 70.745,215.198 70.481,214.379 70.386 C 213.567 70.293,213.301 70.027,213.207 69.215 C 213.107 68.346,212.866 68.143,211.816 68.042 C 210.700 67.934,210.547 67.781,210.547 66.772 C 210.547 65.764,210.408 65.625,209.401 65.625 C 208.441 65.625,208.235 65.450,208.131 64.551 C 208.014 63.534,207.888 63.470,205.762 63.359 C 203.561 63.245,203.516 63.219,203.516 62.090 C 203.516 61.076,203.378 60.938,202.370 60.938 C 201.410 60.938,201.204 60.763,201.100 59.863 C 200.987 58.879,200.791 58.761,198.752 58.455 C 196.739 58.153,196.517 58.023,196.409 57.088 C 196.301 56.156,196.098 56.036,194.339 55.859 C 192.689 55.694,192.310 55.499,191.876 54.590 C 191.402 53.596,191.190 53.516,189.041 53.516 C 186.721 53.516,186.719 53.514,186.719 52.344 C 186.719 51.173,186.716 51.172,184.401 51.172 C 182.163 51.172,182.079 51.135,181.960 50.098 C 181.837 49.029,181.818 49.023,178.498 48.912 C 175.197 48.801,175.156 48.787,174.724 47.642 L 174.287 46.484 168.122 46.484 L 161.957 46.484 160.837 45.410 C 159.740 44.359,159.602 44.333,154.272 44.209 L 148.828 44.082 148.828 40.634 L 148.828 37.186 150.000 36.777 C 150.889 36.467,151.172 36.128,151.172 35.372 C 151.172 34.493,151.334 34.375,152.539 34.375 C 153.616 34.375,153.906 34.531,153.906 35.108 M144.141 56.055 L 144.141 63.281 138.330 63.281 L 132.520 63.281 132.288 64.438 L 132.057 65.594 128.626 65.707 C 125.206 65.820,125.195 65.824,125.072 66.895 C 124.956 67.900,124.828 67.969,123.070 67.969 C 120.041 67.969,118.729 68.363,118.338 69.391 C 118.037 70.184,117.724 70.313,116.103 70.313 C 114.112 70.313,113.281 70.796,113.281 71.953 C 113.281 72.446,112.984 72.656,112.285 72.656 C 110.969 72.656,108.984 73.705,108.984 74.401 C 108.984 74.757,108.464 74.996,107.520 75.074 C 106.248 75.179,106.038 75.337,105.931 76.270 C 105.835 77.104,105.601 77.344,104.882 77.344 C 103.412 77.344,101.894 78.070,101.684 78.874 C 101.561 79.343,101.004 79.705,100.159 79.864 C 99.086 80.065,98.828 80.294,98.828 81.046 C 98.828 81.774,98.591 82.007,97.754 82.103 C 96.906 82.201,96.653 82.456,96.555 83.316 C 96.457 84.166,96.178 84.456,95.285 84.634 C 94.338 84.824,94.141 85.057,94.141 85.986 C 94.141 86.976,94.000 87.109,92.956 87.109 L 91.772 87.109 91.882 91.699 L 91.992 96.289 93.066 96.413 C 94.090 96.530,94.141 96.635,94.141 98.640 C 94.141 101.025,94.725 102.619,95.713 102.933 C 96.178 103.080,96.449 103.710,96.592 104.978 C 96.744 106.331,97.063 107.020,97.813 107.618 C 98.462 108.136,98.828 108.814,98.828 109.497 C 98.828 110.373,99.040 110.609,100.000 110.801 C 101.073 111.015,101.172 111.170,101.178 112.646 C 101.185 114.532,101.471 115.090,102.536 115.292 C 103.045 115.388,103.384 115.843,103.514 116.606 C 103.671 117.520,103.943 117.800,104.763 117.895 C 105.573 117.988,105.840 118.255,105.933 119.067 C 106.028 119.885,106.292 120.144,107.129 120.241 C 108.029 120.344,108.203 120.551,108.203 121.510 C 108.203 122.141,108.379 122.656,108.594 122.656 C 108.809 122.656,108.984 122.914,108.984 123.230 C 108.984 123.545,109.435 124.039,109.986 124.328 C 110.537 124.616,111.196 125.267,111.451 125.774 C 111.706 126.281,112.441 126.865,113.086 127.071 C 114.504 127.524,115.625 128.448,115.625 129.162 C 115.625 129.485,116.076 129.688,116.797 129.688 C 117.839 129.688,117.969 129.818,117.969 130.859 C 117.969 131.901,118.099 132.031,119.141 132.031 C 120.133 132.031,120.313 132.182,120.313 133.017 C 120.313 134.144,121.493 134.766,123.632 134.766 C 124.777 134.766,124.964 134.905,125.072 135.840 C 125.185 136.820,125.365 136.931,127.145 137.109 C 128.796 137.275,129.175 137.470,129.608 138.379 C 130.082 139.373,130.294 139.453,132.443 139.453 C 134.632 139.453,134.766 139.507,134.766 140.388 C 134.766 141.600,135.365 141.797,139.049 141.797 C 141.804 141.797,142.117 141.875,142.308 142.607 C 142.425 143.053,142.885 143.513,143.330 143.629 C 144.095 143.829,144.141 144.112,144.141 148.678 L 144.141 153.516 141.628 153.516 C 139.495 153.516,139.079 153.403,138.878 152.767 C 138.566 151.785,136.723 151.172,134.085 151.172 C 132.310 151.172,131.925 151.047,131.760 150.415 C 131.505 149.439,129.717 148.828,127.116 148.828 C 125.155 148.828,125.046 148.775,124.928 147.754 C 124.811 146.739,124.683 146.673,122.583 146.563 C 120.493 146.454,120.354 146.384,120.239 145.391 C 120.139 144.521,119.898 144.315,118.867 144.215 C 118.025 144.134,117.535 143.839,117.368 143.314 C 117.101 142.471,115.728 141.797,114.281 141.797 C 113.591 141.797,113.324 141.521,113.145 140.625 C 112.947 139.640,112.726 139.453,111.754 139.453 C 110.784 139.453,110.579 139.281,110.475 138.379 C 110.376 137.519,110.125 137.279,109.215 137.175 C 108.590 137.104,107.566 136.533,106.939 135.906 C 106.211 135.178,105.396 134.766,104.682 134.766 C 103.707 134.766,103.550 134.604,103.443 133.496 C 103.341 132.438,103.141 132.206,102.246 132.103 C 101.346 131.999,101.172 131.793,101.172 130.833 C 101.172 129.821,101.036 129.688,100.000 129.688 C 98.958 129.688,98.828 129.557,98.828 128.516 C 98.828 127.616,98.652 127.344,98.070 127.344 C 97.185 127.344,96.828 126.875,96.281 125.000 C 96.059 124.240,95.510 123.468,95.045 123.262 C 94.585 123.058,94.056 122.355,93.869 121.699 C 93.645 120.915,93.240 120.466,92.686 120.386 C 92.102 120.302,91.807 119.943,91.723 119.214 C 91.630 118.408,91.362 118.136,90.570 118.045 C 89.633 117.936,89.513 117.727,89.270 115.783 C 89.024 113.810,88.912 113.622,87.861 113.412 C 86.916 113.223,86.719 112.989,86.719 112.061 C 86.719 111.073,86.577 110.938,85.547 110.938 C 84.376 110.938,84.375 110.935,84.375 108.620 C 84.375 106.382,84.338 106.298,83.301 106.178 C 82.296 106.063,82.219 105.920,82.107 103.962 C 81.998 102.050,81.888 101.831,80.837 101.435 C 79.795 101.041,79.688 100.833,79.688 99.211 C 79.688 97.319,79.191 96.484,78.066 96.484 C 77.508 96.484,77.361 96.072,77.266 94.238 C 77.155 92.112,77.091 91.986,76.074 91.869 C 75.038 91.749,75.000 91.663,75.000 89.453 C 75.000 87.243,75.038 87.157,76.074 87.038 C 76.969 86.935,77.169 86.702,77.271 85.645 C 77.378 84.528,77.532 84.375,78.540 84.375 C 79.555 84.375,79.688 84.239,79.688 83.203 C 79.688 82.161,79.818 82.031,80.859 82.031 C 81.901 82.031,82.031 81.901,82.031 80.859 C 82.031 79.818,82.161 79.688,83.203 79.688 C 84.239 79.688,84.375 79.554,84.375 78.542 C 84.375 77.582,84.550 77.376,85.449 77.272 C 86.286 77.176,86.550 76.916,86.645 76.097 C 86.745 75.232,86.987 75.025,88.012 74.925 C 89.037 74.826,89.279 74.618,89.379 73.754 C 89.473 72.942,89.739 72.676,90.551 72.582 C 91.370 72.488,91.629 72.224,91.725 71.387 C 91.821 70.552,92.055 70.313,92.774 70.313 C 94.267 70.313,95.763 69.582,95.982 68.745 C 96.093 68.318,96.502 67.969,96.889 67.969 C 98.185 67.969,98.828 67.502,98.828 66.560 C 98.828 65.818,99.034 65.625,99.824 65.625 C 101.139 65.625,103.125 64.576,103.125 63.882 C 103.125 63.546,103.620 63.283,104.395 63.208 C 105.511 63.101,105.679 62.933,105.786 61.816 L 105.909 60.547 108.228 60.547 C 110.536 60.547,110.547 60.541,110.547 59.394 C 110.547 58.252,110.571 58.239,112.988 58.124 C 115.328 58.013,115.435 57.963,115.553 56.934 L 115.677 55.859 118.981 55.859 L 122.285 55.859 122.517 54.702 L 122.748 53.545 126.120 53.433 C 129.477 53.321,129.493 53.315,129.616 52.246 L 129.739 51.172 135.411 51.172 L 141.083 51.172 141.526 50.000 C 141.871 49.085,142.206 48.828,143.054 48.828 L 144.141 48.828 144.141 56.055 M165.625 66.560 C 165.625 67.774,166.223 67.969,169.954 67.969 C 172.419 67.969,173.047 68.086,173.047 68.545 C 173.047 69.295,175.036 70.313,176.502 70.313 C 177.240 70.313,178.101 70.732,178.906 71.484 C 179.790 72.310,180.553 72.656,181.487 72.656 C 182.394 72.656,182.813 72.838,182.813 73.232 C 182.813 73.947,184.778 75.000,186.113 75.000 C 186.960 75.000,187.109 75.176,187.109 76.172 C 187.109 77.214,187.240 77.344,188.281 77.344 C 189.149 77.344,189.453 77.526,189.453 78.047 C 189.453 79.004,190.210 79.688,191.270 79.688 C 191.753 79.688,192.314 79.983,192.516 80.343 C 192.717 80.704,193.561 81.378,194.390 81.841 C 196.965 83.278,197.633 86.923,195.370 87.185 C 194.569 87.278,194.308 87.547,194.212 88.379 C 194.109 89.279,193.903 89.453,192.943 89.453 C 191.930 89.453,191.797 89.589,191.797 90.625 C 191.797 91.667,191.667 91.797,190.625 91.797 C 189.583 91.797,189.453 91.927,189.453 92.969 C 189.453 94.010,189.323 94.141,188.281 94.141 C 187.256 94.141,187.109 94.279,187.109 95.241 C 187.109 96.262,186.961 96.368,185.059 96.706 C 183.517 96.980,182.913 97.286,182.627 97.937 C 182.418 98.414,181.770 98.909,181.186 99.037 C 180.487 99.191,180.084 99.561,180.004 100.123 C 179.733 102.026,177.345 101.500,177.338 99.536 C 177.331 97.571,177.078 97.080,175.879 96.706 C 175.230 96.503,175.000 96.132,175.000 95.286 C 175.000 94.274,174.864 94.141,173.828 94.141 C 172.703 94.141,172.656 94.072,172.656 92.415 C 172.656 90.088,172.354 89.453,171.247 89.453 C 170.469 89.453,170.313 89.257,170.313 88.281 C 170.313 87.240,170.182 87.109,169.141 87.109 C 168.099 87.109,167.969 86.979,167.969 85.938 C 167.969 84.944,167.818 84.766,166.980 84.766 C 166.379 84.766,165.908 84.497,165.780 84.082 C 165.359 82.720,164.944 82.224,164.120 82.102 C 163.659 82.033,163.281 81.738,163.281 81.446 C 163.281 80.359,162.077 79.688,160.128 79.688 C 158.358 79.688,158.203 79.612,158.203 78.753 C 158.203 77.494,157.638 77.344,152.898 77.344 L 148.828 77.344 148.828 71.484 L 148.828 65.625 157.227 65.625 L 165.625 65.625 165.625 66.560 M144.087 102.441 C 144.058 114.956,143.953 124.756,143.853 124.219 C 143.618 122.954,143.126 122.670,141.162 122.662 C 139.686 122.657,139.531 122.558,139.316 121.484 C 139.118 120.492,138.901 120.313,137.900 120.313 C 137.023 120.313,136.719 120.131,136.719 119.609 C 136.719 118.651,135.961 117.969,134.897 117.969 C 134.410 117.969,133.824 117.617,133.594 117.188 C 133.364 116.758,132.951 116.406,132.676 116.406 C 132.401 116.406,131.883 115.791,131.524 115.039 C 131.165 114.287,130.619 113.672,130.311 113.672 C 130.002 113.672,129.634 113.144,129.492 112.500 C 129.316 111.698,128.936 111.252,128.289 111.090 C 127.568 110.909,127.344 110.591,127.344 109.749 C 127.344 108.836,127.159 108.624,126.270 108.522 C 125.374 108.419,125.175 108.187,125.073 107.129 C 124.984 106.208,124.756 105.859,124.242 105.859 C 123.196 105.859,122.725 105.080,122.585 103.117 C 122.473 101.535,122.358 101.355,121.387 101.244 C 120.365 101.126,120.313 101.019,120.313 99.039 C 120.313 97.266,120.139 96.772,119.141 95.703 C 117.558 94.009,117.460 91.797,118.967 91.797 C 119.564 91.797,120.389 91.344,121.018 90.671 C 121.597 90.051,122.642 89.256,123.340 88.903 C 124.038 88.550,124.609 88.002,124.609 87.685 C 124.609 87.369,124.947 87.109,125.359 87.109 C 126.772 87.109,127.344 86.653,127.344 85.525 C 127.344 84.447,127.410 84.411,129.590 84.297 C 131.716 84.186,131.843 84.122,131.960 83.105 C 132.081 82.049,132.127 82.031,134.792 82.031 C 137.468 82.031,139.063 81.302,139.063 80.078 C 139.063 79.858,140.169 79.688,141.602 79.688 L 144.141 79.688 144.087 102.441 M269.580 110.938 C 270.055 110.938,270.313 111.215,270.313 111.728 C 270.313 112.651,271.671 113.281,273.658 113.281 C 274.813 113.281,275.000 113.412,275.000 114.216 C 275.000 115.163,275.643 115.625,276.961 115.625 C 277.360 115.625,278.264 116.152,278.969 116.797 C 279.734 117.495,280.680 117.969,281.311 117.969 C 282.011 117.969,282.450 118.222,282.607 118.717 C 282.857 119.505,284.658 120.313,286.165 120.313 C 286.848 120.313,287.086 120.564,287.181 121.387 C 287.298 122.404,287.424 122.467,289.551 122.578 C 291.751 122.693,291.797 122.719,291.797 123.848 C 291.797 124.775,291.969 125.005,292.676 125.025 L 293.555 125.050 292.676 125.403 C 292.182 125.601,291.797 126.093,291.797 126.524 C 291.797 127.071,291.488 127.327,290.723 127.415 C 289.879 127.513,289.622 127.770,289.525 128.613 C 289.427 129.464,289.199 129.688,288.431 129.688 C 287.280 129.688,285.292 130.649,285.070 131.313 C 284.984 131.571,284.309 131.985,283.570 132.232 C 282.549 132.574,282.197 132.932,282.103 133.724 C 281.986 134.710,281.866 134.766,279.847 134.766 C 277.790 134.766,277.707 134.807,277.480 135.938 C 277.258 137.051,277.149 137.109,275.308 137.109 C 273.513 137.109,273.337 137.196,272.927 138.281 C 272.532 139.328,272.309 139.453,270.841 139.453 C 269.171 139.453,267.969 140.192,267.969 141.219 C 267.969 141.601,267.314 141.792,265.723 141.875 C 263.596 141.986,263.470 142.049,263.353 143.066 C 263.234 144.102,263.147 144.141,260.943 144.141 C 258.719 144.141,258.649 144.173,258.398 145.313 C 258.152 146.437,258.056 146.484,256.049 146.484 C 253.469 146.484,251.941 147.032,251.674 148.052 C 251.507 148.691,251.139 148.828,249.596 148.828 C 247.116 148.828,246.484 149.114,246.484 150.237 C 246.484 151.130,246.367 151.172,243.848 151.177 C 240.256 151.184,239.453 151.442,239.453 152.585 C 239.453 153.452,239.300 153.519,237.207 153.562 C 233.752 153.633,232.637 153.969,232.492 154.983 C 232.382 155.759,232.135 155.862,230.344 155.882 C 226.813 155.921,225.210 156.351,225.075 157.295 C 224.965 158.066,224.647 158.155,221.169 158.394 C 216.436 158.720,216.070 158.825,215.788 159.951 C 215.569 160.823,215.372 160.873,211.648 161.000 C 207.922 161.127,207.697 161.184,206.881 162.207 C 206.041 163.262,205.948 163.281,201.724 163.281 C 197.286 163.281,196.484 163.532,196.484 164.922 C 196.484 165.570,195.992 165.625,190.209 165.625 C 183.721 165.625,182.422 165.883,182.422 167.172 C 182.422 167.933,166.445 168.409,153.223 168.042 L 148.828 167.920 148.828 163.062 L 148.828 158.203 164.232 158.203 C 180.145 158.203,181.641 158.070,181.641 156.650 C 181.641 155.899,181.881 155.859,186.475 155.859 L 191.309 155.859 191.540 154.703 L 191.771 153.546 195.202 153.433 C 198.610 153.321,198.634 153.313,198.755 152.261 C 198.876 151.210,198.903 151.201,202.271 151.089 C 205.651 150.977,205.665 150.972,205.788 149.902 C 205.907 148.865,205.991 148.828,208.229 148.828 C 210.544 148.828,210.547 148.827,210.547 147.656 C 210.547 146.486,210.549 146.484,212.869 146.484 C 215.018 146.484,215.230 146.404,215.704 145.410 C 216.132 144.513,216.525 144.304,218.085 144.141 C 219.586 143.984,220.048 143.753,220.435 142.969 C 220.761 142.307,221.291 141.958,222.079 141.885 C 224.493 141.663,225.000 141.420,225.000 140.485 C 225.000 139.684,225.260 139.538,227.246 139.223 C 229.148 138.922,229.511 138.732,229.617 137.988 C 229.714 137.305,229.997 137.109,230.887 137.109 C 231.728 137.109,232.031 136.923,232.031 136.406 C 232.031 135.418,232.797 134.767,233.965 134.760 C 236.025 134.749,236.719 134.346,236.719 133.158 C 236.719 132.131,236.840 132.031,238.086 132.031 C 239.345 132.031,239.453 131.938,239.453 130.859 C 239.453 129.712,239.494 129.688,241.427 129.688 C 243.268 129.688,243.427 129.609,243.809 128.516 C 244.136 127.577,244.442 127.344,245.351 127.344 C 246.350 127.344,246.484 127.205,246.484 126.172 C 246.484 125.130,246.615 125.000,247.656 125.000 C 248.461 125.000,248.828 124.808,248.828 124.386 C 248.828 123.457,249.821 122.656,250.974 122.656 C 252.412 122.656,253.516 121.983,253.516 121.106 C 253.516 120.587,253.839 120.327,254.590 120.241 C 255.434 120.144,255.691 119.887,255.788 119.043 C 255.891 118.143,256.097 117.969,257.057 117.969 C 258.070 117.969,258.203 117.833,258.203 116.797 C 258.203 115.755,258.333 115.625,259.375 115.625 C 260.250 115.625,260.547 115.444,260.547 114.910 C 260.547 114.199,261.153 113.793,263.561 112.888 C 264.252 112.628,264.920 112.095,265.044 111.702 C 265.314 110.853,266.189 110.550,267.725 110.774 C 268.342 110.864,269.177 110.938,269.580 110.938 " stroke="none" fill="#7cbc04" fill-rule="evenodd"></path></g></svg>