<?xml version="1.0" standalone="yes"?>
<svg xmlns="http://www.w3.org/2000/svg" width="512" height="512">
<path style="fill:#010101; stroke:none;" d="M0 0L0 193L1 193C2.67363 154.12 36.4543 118.382 72 106.671C81.0052 103.704 90.5332 101.738 100 101.09C103.74 100.833 110.122 102.326 113.301 99.9722C118.407 96.1917 121.555 84.4961 125.054 79C133.005 66.5103 143.248 55.6261 155 46.6543C201.27 11.3304 268.762 14.2555 312 53.1705C321.303 61.5432 329.329 71.2911 335.796 82C338.692 86.7953 341.252 96.6798 345.699 99.9722C348.284 101.886 352.96 100.922 356 101.285C363.054 102.129 370.236 103.293 377 105.519C403.094 114.108 428.548 135.755 436 163C470.758 163.004 508 189.266 511 226L512 226L512 0L0 0z"/>
<path style="fill:#b1d3f1; stroke:none;" d="M436 163C431.238 135.346 401.531 112.23 376 104.91C368.111 102.648 352.82 104.205 346.418 99.9722C342.623 97.463 340.812 89.9119 338.691 86C334.042 77.4239 328.358 69.2543 321.829 62C295.259 32.4779 255.259 18.3705 216 22.1698C184.602 25.2082 153.653 41.4549 133.805 66C128.498 72.562 123.718 79.5255 119.781 87C117.822 90.7197 116.51 96.5477 113.351 99.3966C110.545 101.927 105.466 100.963 102 101.004C95.0087 101.087 87.7939 102.272 81 103.884C60.8743 108.661 41.0726 119.359 27.2863 135.001C-17.5893 185.916 -5.92787 269.794 56 301.742C83.9627 316.167 112.191 310.197 142 313.715C158.266 315.634 175.621 314 192 314L288 314C326.708 314 365.347 313 404 313C425.859 313 449.646 316.182 470 306.677C513.632 286.3 525.664 226.755 495.535 190C480.839 172.071 458.82 163 436 163z"/>
<path style="fill:#ebf0f1; stroke:none;" d="M251 23L252 24L251 23M202 24L203 25L202 24M168 37L169 38L168 37M157 44L158 45L157 44M212 49.4391C189.491 52.9821 169.99 68.5533 158.873 88C155.216 94.3954 141.97 120.897 159.999 118.728C169.676 117.563 174.489 96.0063 180.326 89C187.231 80.71 195.774 73.4229 206 69.6952C211.798 67.5816 220.903 67.9234 225.775 64.2585C238.467 54.7127 220.134 48.1587 212 49.4391M148 51L149 52L148 51M115 96L116 97L115 96M59 111L60 112L59 111M395 113L396 114L395 113M35 127L36 128L35 127M72 135.65C38.9828 145.382 22.594 188.992 27.439 220C29.2182 231.387 33.5102 242.494 40.0285 251.999C43.2581 256.709 47.5703 261.803 53.9846 259.396C58.2393 257.799 60.4415 253.296 59.1304 249C54.74 234.613 44.6774 225.328 44.0401 209C43.319 190.524 52.7548 173.274 66 161.093C71.0206 156.476 79.5344 153.786 83.1381 147.957C87.8711 140.301 79.4433 133.456 72 135.65z"/>
<path style="fill:#3d98d3; stroke:none;" d="M162 225C168.471 225 185.426 221.99 190.298 226.603C197.743 233.653 199.219 252.532 203.069 261.985C205.333 267.545 211.229 271.266 216.867 267.258C225.166 261.357 216.764 246.293 214.333 239L190.333 167C187.969 159.907 186 145.215 176 145.788C166.562 146.328 165.015 160.956 162.667 168L139 239C136.651 246.048 128.485 260.331 135.279 266.566C139.807 270.722 146.317 268.864 149.175 263.906C155.187 253.476 160.246 236.879 162 225M247 216C259.434 216 275.371 218.662 287 213.662C312.326 202.774 316.439 168.243 294 151.928C281.19 142.615 253.293 143.765 238 145.653C227.094 146.999 229 160.105 229 168L229 241C229 248.457 226.196 264.703 235.044 268.257C240.766 270.556 246.233 266.857 246.891 260.999C248.534 246.375 247 230.722 247 216M335 163L335 252C328.807 252 318.638 250.066 313.109 253.179C307.75 256.196 308.112 264.573 313.214 267.682C317.807 270.481 325.824 269 331 269C343.139 269 362.693 272.758 373.981 268.258C380.363 265.714 381.066 256.366 374.942 253.028C369.44 250.029 359.147 252 353 252L353 163C359.276 163 369.301 164.895 374.942 161.821C380.268 158.919 380.828 151.277 375.867 147.742C369.551 143.243 351.682 145.28 344 145.455C336.048 145.637 320.065 143.189 313.189 147.179C307.933 150.229 308.001 158.726 313.214 161.821C318.553 164.991 328.949 163 335 163z"/>
<path style="fill:#ebf0f1; stroke:none;" d="M16 149L17 150L16 149z"/>
<path style="fill:#b1d3f1; stroke:none;" d="M248.603 164.028C244.258 167.469 246.989 184.768 247 190C247.005 192.42 246.436 196.255 248.603 197.972C250.876 199.772 255.307 199 258 199C266.707 199.001 277.719 200.672 284.906 194.606C293.752 187.138 292.92 172.115 282.996 166.005C276.772 162.174 268.978 163 262 163C258.469 163 251.543 161.699 248.603 164.028z"/>
<path style="fill:#ebf0f1; stroke:none;" d="M477 174L478 175L477 174M480 176L481 177L480 176z"/>
<path style="fill:#b1d3f1; stroke:none;" d="M176 183L169 207L185 207L176 183z"/>
<path style="fill:#010101; stroke:none;" d="M0 222L0 512L512 512L512 251L511 251C508.398 282.855 475.575 312.348 444 313L444 314C450.663 316.268 464.244 319.588 467.82 326.105C470.745 331.435 466.478 338.105 464.424 343C458.571 356.949 454.26 377.261 444.582 388.941C437.091 397.981 416.667 384.565 408 380.989C404.1 379.38 399.314 376.09 395.464 379.358C385.134 388.128 377.609 400.37 367 409.246C363.898 411.842 356.903 415.443 356.927 420.039C356.976 429.116 365.193 441.615 368.603 450C370.082 453.636 372.876 458.03 370.957 461.985C368.435 467.181 361.87 468.776 357 470.85C345.049 475.94 333.056 480.963 321 485.8C315.994 487.809 309.381 492.032 304.214 488.258C293.948 480.761 291.225 457.938 285 447C273.087 449.935 259.237 450.995 247 449.83C242.073 449.361 230.925 445.909 226.699 449.028C219.898 454.048 216.227 472.254 212.988 480C210.928 484.93 208.226 490.296 202 489.743C186.421 488.359 167.466 475.986 153 470.011C148.1 467.987 140.389 465.516 140.361 459C140.322 449.929 148.564 437.354 152.011 429C153.62 425.1 156.91 420.314 153.642 416.464C146.05 407.521 135.167 400.854 127.17 392C123.68 388.136 119.705 380.263 114.826 378.213C111.224 376.699 106.256 380.07 103 381.397C94.7836 384.744 82.9605 392.516 74 392.443C67.8725 392.393 65.3074 385.692 63.2809 381C57.7121 368.106 52.453 355.026 47.2006 342C45.3554 337.424 41.5259 331.018 44.1829 326.105C49.9284 315.482 69.1682 318.286 76 309C47.3403 304.707 20.8976 277.114 9.30941 252C4.86775 242.374 4.20871 231.375 0 222z"/>
<path style="fill:#ebf0f1; stroke:none;" d="M8 250L9 251L8 250M26 278L27 279L26 278M44 294L45 295L44 294M486 295L487 296L486 295M462 309L463 310L462 309z"/>
<path style="fill:#3f5d6d; stroke:none;" d="M285 447C289.106 457.009 293.237 467.021 297.424 477C299.017 480.796 300.452 486.594 304.214 488.821C309.519 491.962 316.044 488.199 321 486.201C333.043 481.345 345.071 476.409 357 471.281C361.682 469.268 368.275 467.851 370.817 462.956C377.389 450.302 356.236 432.849 357.392 420.039C357.8 415.523 364.852 411.879 368 409.246C378.379 400.563 385.699 389.267 395.464 380.242C399.383 376.619 403.862 379.711 408 381.397C415.75 384.554 435.064 396.913 442.892 391.397C449.823 386.512 453.134 371.641 456.2 364C459.861 354.875 472.395 335.914 468.258 326.105C465.661 319.949 451.974 316.151 446 314.444C438.435 312.282 428.871 314 421 314L370 314C366.304 326.829 357.59 338.991 348.999 349C308.903 395.718 239.227 405.679 188 371.329C174.165 362.052 162.231 349.929 153.079 336C149.785 330.988 145.855 317.175 140.582 314.603C133.703 311.25 119.625 314.012 112 314C100.668 313.982 89.1408 310.082 78 310.356C69.702 310.56 52.7448 317.836 46.2284 322.969C40.6908 327.331 43.8875 334.698 46 340C50.5361 351.386 55.4475 362.621 60 374C62.0763 379.19 63.8924 386.789 68.2245 390.566C79.4858 400.385 100.706 377.286 112.961 378.392C117.477 378.8 121.121 385.852 123.754 389C132.331 399.252 145.85 406.798 153.497 417.3C156.281 421.123 152.701 426.279 151.201 430C148.109 437.667 136.992 454.886 141.183 462.956C143.844 468.08 151.063 469.594 156 471.603C168.373 476.64 180.644 481.932 193 487.011C197.944 489.043 204.811 492.206 209.362 487.566C215.771 481.033 218.552 467.382 222.011 459C223.335 455.791 224.701 450.077 228.225 448.618C233.126 446.589 241.796 449.554 247 449.91C259.003 450.732 273.485 450.641 285 447z"/>
<path style="fill:#3d98d3; stroke:none;" d="M80.6667 310.333L81.3333 310.667L80.6667 310.333M85.6667 311.333L86.3333 311.667L85.6667 311.333M91 312L91 313L94 313L91 312M103 313L103 314L141 314C130.964 309.789 113.911 313 103 313M371 313L371 314L440 314L418 313L371 313M442.667 313.333L443.333 313.667L442.667 313.333z"/>
<path style="fill:#010101; stroke:none;" d="M142 314C145.373 328.2 155.322 341.302 164.845 351.996C212.284 405.266 301.364 405.328 348.13 351C357.198 340.466 366.729 327.771 370 314L142 314z"/>
<path style="fill:#3d98d3; stroke:none;" d="M63 315L64 316L63 315M369 316L370 317L369 316M166 353L167 354L166 353M459 355L460 356L459 355M171 358L172 359L171 358M179 365L180 366L179 365M192 374L193 375L192 374M310 379L311 380L310 379M93 385L94 386L93 385M357 422L358 423L357 422M147 439L148 440L147 439M140 456L141 457L140 456M371 456L372 457L371 456M140 462L141 463L140 462M371 462L372 463L371 462M158 472L159 473L158 472M170 477L171 478L170 477z"/>
</svg>
