<?xml version="1.0" standalone="yes"?>
<svg xmlns="http://www.w3.org/2000/svg" width="573" height="175">
<path style="fill:#ffffff; stroke:none;" d="M0 0L0 175L573 175L573 0L0 0z"/>
<path style="fill:#afd1e5; stroke:none;" d="M57 45L57 46L68 46L68 56C72.131 46.1554 64.8166 45 57 45M499 45L499 46L510 46L499 45M54 46L55 47L54 46z"/>
<path style="fill:#989898; stroke:none;" d="M55 46L56 47L55 46z"/>
<path style="fill:#676767; stroke:none;" d="M43 80L43 91C57.1781 98.6319 37.7916 124.791 58 129.471C61.5629 130.296 65.369 130 69 130L69 120C54.2017 117.66 69.0239 92.0105 53 86C57.0386 83.7443 60.6411 81.9159 61.6559 76.9992C63.1026 69.9897 58.371 57.5356 68 56L68 46C59.0421 46 49.3067 46.0532 47.3295 57C46.0694 63.9762 50.2103 76.0241 43 80M499 46C499.006 54.0183 503.697 54.4578 505.566 61.0193C508.203 70.2753 501.731 82.5763 515 85L515 86C504.616 89.093 505 97.7699 505 107C505 112.856 506.061 118.874 499 120L499 130C502.296 130 505.742 130.259 509 129.671C525.064 126.769 518.404 108.234 520.148 97.0039C520.918 92.0468 525.603 89.5031 524.848 84.0386C524.319 80.2103 520.925 77.8173 520.228 73.9961C518.874 66.5661 522.596 56.5686 517.347 50.2245C512.99 44.9581 505.081 46 499 46z"/>
<path style="fill:#989898; stroke:none;" d="M511 46L512 47L511 46z"/>
<path style="fill:#afd1e5; stroke:none;" d="M512 46L513 47L512 46M52 47L53 48L52 47z"/>
<path style="fill:#989898; stroke:none;" d="M53 47L54 48L53 47M514 47L515 48L514 47M51 48L52 49L51 48z"/>
<path style="fill:#afd1e5; stroke:none;" d="M516 48L517 49L516 48z"/>
<path style="fill:#989898; stroke:none;" d="M50 49L51 50L50 49z"/>
<path style="fill:#afd1e5; stroke:none;" d="M517 49L518 50L517 49z"/>
<path style="fill:#989898; stroke:none;" d="M49 50L50 51L49 50z"/>
<path style="fill:#afd1e5; stroke:none;" d="M48 51L49 52L48 51M226 51L226 52L236 52L226 51z"/>
<path style="fill:#989898; stroke:none;" d="M518 51L519 52L518 51M48 52L49 53L48 52z"/>
<path style="fill:#afd1e5; stroke:none;" d="M96 115L97 115L97 53L110 53C106.836 51.6723 98.5042 50.4549 96.6034 54.3179C94.406 58.7835 96 67.0986 96 72L96 115z"/>
<path style="fill:#049ed5; stroke:none;" d="M97 53L97 115L113 115L113 91C128.166 91.01 128.532 102.273 131 115L148 115C146.3 102.378 143.147 93.3837 134 85C147.337 83.6241 150.63 63.3839 139.895 55.9946C128.535 48.175 109.768 53 97 53z"/>
<path style="fill:#afd1e5; stroke:none;" d="M126 52L126 53L132 53L126 52M167 52L167 53L188 53L167 52M218 52L218 53L222 53L218 52z"/>
<path style="fill:#049ed5; stroke:none;" d="M208 102C207.977 104.762 206.537 110.045 208.117 112.4C210.078 115.322 216.918 114.881 220 115.282C231.116 116.725 249.725 118.025 252.876 104C255.445 92.5655 250.911 83.4183 240 79.0648C236.045 77.487 222.079 74.508 223.752 68.2238C225.361 62.1771 246.032 65 251 65L252 55C235.094 48.6688 196.189 49.9137 208.228 77.9853C212.794 88.6308 225.737 87.9481 233.851 93.9938C241.251 99.5074 231.548 101.991 227 102L219 102L208 102z"/>
<path style="fill:#afd1e5; stroke:none;" d="M240 52L240 53L245 53L240 52M397 115L398 115L398 53L411 53C407.836 51.6723 399.504 50.4549 397.603 54.3179C395.406 58.7835 397 67.0986 397 72L397 115z"/>
<path style="fill:#049ed5; stroke:none;" d="M398 53L398 115L414 115L414 93C422.026 93 432.852 94.7383 439.956 90.1458C449.228 84.1515 448.723 61.8811 439.956 55.7029C429.154 48.0905 410.23 53 398 53z"/>
<path style="fill:#afd1e5; stroke:none;" d="M427 52L427 53L433 53L427 52M519 52L520 53L519 52M47 53L48 54L47 53M134.667 53.3333L135.333 53.6667L134.667 53.3333M164 53L165 54L164 53z"/>
<path style="fill:#989898; stroke:none;" d="M165 53L166 54L165 53z"/>
<path style="fill:#049ed5; stroke:none;" d="M200 114L200 103C193.222 103 182.205 105.083 176.133 101.682C172.028 99.3825 169.92 90.8864 175.148 88.6034C180.648 86.2019 190.047 88 196 88L196 78C190.05 78 180.643 79.8004 175.148 77.3966C170.291 75.2721 172.42 68.3157 176.133 66.179C181.985 62.8118 193.398 65 200 65L200 54C189.592 53.1786 170.092 49.046 161.108 55.7029C151.435 62.871 155.509 90.1756 156.04 101C156.252 105.315 157.481 109.609 161.108 112.297C170.472 119.236 189.211 114.223 200 114z"/>
<path style="fill:#afd1e5; stroke:none;" d="M195 53L195 54L200 54L200 64L201 64L201 53L195 53M215 53L216 54L215 53z"/>
<path style="fill:#989898; stroke:none;" d="M216 53L217 54L216 53z"/>
<path style="fill:#afd1e5; stroke:none;" d="M247.667 53.3333L248.333 53.6667L247.667 53.3333M258 53L258 66L259 66L258 53z"/>
<path style="fill:#049ed5; stroke:none;" d="M259 53L259 66L276 66L276 115L293 115L293 66L311 66L311 53L259 53z"/>
<path style="fill:#afd1e5; stroke:none;" d="M351 53L352 54L351 53z"/>
<path style="fill:#049ed5; stroke:none;" d="M332 115L349 115L352 100L370.57 101.028L375.938 113.397L392 115C389.07 100.842 384.272 86.8138 380.025 73C378.417 67.7699 377.738 60.5285 374.297 56.1481C370.805 51.7026 356.885 51.2987 352.133 54.0278C347.345 56.7782 346.397 65.1535 345 70C340.689 84.9577 335.479 99.8251 332 115z"/>
<path style="fill:#afd1e5; stroke:none;" d="M372 53L373 54L372 53M435.667 53.3333L436.333 53.6667L435.667 53.3333M454 53L454 115L455 115L455 73L454 53z"/>
<path style="fill:#049ed5; stroke:none;" d="M455 53L455 115L471 115L471 53L455 53z"/>
<path style="fill:#afd1e5; stroke:none;" d="M471 53L471 115L472 115L472 73L471 53z"/>
<path style="fill:#989898; stroke:none;" d="M519 53L520 54L519 53M47.3333 54.6667L47.6667 55.3333L47.3333 54.6667z"/>
<path style="fill:#afd1e5; stroke:none;" d="M137 54L138 55L137 54M162 54L163 55L162 54M212.667 54.3333L213.333 54.6667L212.667 54.3333M251 54L252 55L251 54z"/>
<path style="fill:#989898; stroke:none;" d="M350 54L351 55L350 54M373 54L374 55L373 54z"/>
<path style="fill:#afd1e5; stroke:none;" d="M438 54L439 55L438 54M139 55L140 56L139 55M160 55L161 56L160 55M211 55L212 56L211 55M349 55L350 56L349 55z"/>
<path style="fill:#989898; stroke:none;" d="M374 55L375 56L374 55z"/>
<path style="fill:#afd1e5; stroke:none;" d="M440 55L441 56L440 55z"/>
<path style="fill:#989898; stroke:none;" d="M499 55L500 56L499 55z"/>
<path style="fill:#afd1e5; stroke:none;" d="M520 55L521 56L520 55z"/>
<path style="fill:#989898; stroke:none;" d="M63 56L64 57L63 56z"/>
<path style="fill:#afd1e5; stroke:none;" d="M64 56L65 57L64 56M159 56L160 57L159 56z"/>
<path style="fill:#989898; stroke:none;" d="M210 56L211 57L210 56M251 56L252 57L251 56z"/>
<path style="fill:#afd1e5; stroke:none;" d="M375.333 56.6667L375.667 57.3333L375.333 56.6667z"/>
<path style="fill:#989898; stroke:none;" d="M441 56L442 57L441 56z"/>
<path style="fill:#afd1e5; stroke:none;" d="M503 56L504 57L503 56z"/>
<path style="fill:#989898; stroke:none;" d="M520 56L520 77L521 77L520 56M62 57L63 58L62 57z"/>
<path style="fill:#afd1e5; stroke:none;" d="M158 57L159 58L158 57M209 57L210 58L209 57M251 57L251 64L252 64L251 57M348 57L349 58L348 57z"/>
<path style="fill:#989898; stroke:none;" d="M442 57L443 58L442 57z"/>
<path style="fill:#afd1e5; stroke:none;" d="M504 57L505 58L504 57M46 58L46 78L47 78L46 58M62 58L62 77L63 77L62 58M208 58L209 59L208 58z"/>
<path style="fill:#989898; stroke:none;" d="M348 58L349 59L348 58z"/>
<path style="fill:#afd1e5; stroke:none;" d="M443 58L444 59L443 58M143 59L144 60L143 59M157 59L158 60L157 59M376.333 59.6667L376.667 60.3333L376.333 59.6667M444.333 59.6667L444.667 60.3333L444.333 59.6667z"/>
<path style="fill:#989898; stroke:none;" d="M505 59L505 77L506 77L505 59z"/>
<path style="fill:#afd1e5; stroke:none;" d="M144.333 60.6667L144.667 61.3333L144.333 60.6667M207.333 60.6667L207.667 61.3333L207.333 60.6667M347.333 60.6667L347.667 61.3333L347.333 60.6667M156.333 61.6667L156.667 62.3333L156.333 61.6667M445 62L446 63L445 62M145.333 63.6667L145.667 64.3333L145.333 63.6667M206 63L206 75L207 75L206 63M346.333 63.6667L346.667 64.3333L346.333 63.6667M377.333 63.6667L377.667 64.3333L377.333 63.6667z"/>
<path style="fill:#989898; stroke:none;" d="M445 63L446 64L445 63z"/>
<path style="fill:#afd1e5; stroke:none;" d="M113 64L113 65L125 65L113 64z"/>
<path style="fill:#989898; stroke:none;" d="M125 64L126 65L125 64z"/>
<path style="fill:#afd1e5; stroke:none;" d="M414 64C414 73.2566 411.435 81.9591 423 82L423 81L415 81L415 65L426 65L414 64z"/>
<path style="fill:#ffffff; stroke:none;" d="M113 65L113 79C116.851 79 122.202 79.925 125.772 78.2577C129.808 76.3721 130.199 68.528 126.566 66.0278C123.291 63.7734 116.805 65 113 65z"/>
<path style="fill:#989898; stroke:none;" d="M127 65L128 66L127 65M145 65L146 66L145 65z"/>
<path style="fill:#afd1e5; stroke:none;" d="M176 65L176 66L200 66L176 65M225 65L225 66L251 66L225 65M361 65L360 69L361 69L362 66L363 69L364 69L363 65L361 65z"/>
<path style="fill:#ffffff; stroke:none;" d="M415 65L415 81C418.519 81 423.597 81.8505 426.686 79.821C430.631 77.2294 430.677 68.6012 426.697 66.0278C423.667 64.0688 418.45 65 415 65z"/>
<path style="fill:#afd1e5; stroke:none;" d="M427 65L428 66L427 65M446 65L446 80L447 80L446 65M174 66L175 67L174 66z"/>
<path style="fill:#989898; stroke:none;" d="M223 66L224 67L223 66z"/>
<path style="fill:#ffffff; stroke:none;" d="M361 66L356 88L368 88C367.184 81.9426 366.019 69.8039 361 66z"/>
<path style="fill:#afd1e5; stroke:none;" d="M378.333 66.6667L378.667 67.3333L378.333 66.6667M428 66L429 67L428 66M128 67L129 68L128 67M173 67L174 68L173 67M223 67L224 68L223 67M345.333 67.6667L345.667 68.3333L345.333 67.6667M146 68L146 73L147 73L146 68M429 68L429 71L430 71L429 68M129 70L129 74L130 74L129 70M172 70L172 77L173 77L172 70M344.333 70.6667L344.667 71.3333L344.333 70.6667z"/>
<path style="fill:#989898; stroke:none;" d="M364 70L365 71L364 70z"/>
<path style="fill:#afd1e5; stroke:none;" d="M379 70L380 71L379 70M223 71L224 72L223 71M359 71L359 74L360 74L359 71M364.333 71.6667L364.667 72.3333L364.333 71.6667z"/>
<path style="fill:#989898; stroke:none;" d="M379 71L380 72L379 71z"/>
<path style="fill:#afd1e5; stroke:none;" d="M224 72L225 73L224 72M225.667 73.3333L226.333 73.6667L225.667 73.3333M317 73L317 74L322 74L317 73M380.333 73.6667L380.667 74.3333L380.333 73.6667M228 74L229 75L228 74M312 77L313 77L315 75L312 77z"/>
<path style="fill:#049ed5; stroke:none;" d="M315.228 74.7423C306.574 78.7808 314.33 92.6637 323.772 88.2577C332.426 84.2192 324.67 70.3363 315.228 74.7423z"/>
<path style="fill:#afd1e5; stroke:none;" d="M324 74L325 75L324 74M343 74L344 75L343 74M429 74L429 78L430 78L429 74z"/>
<path style="fill:#989898; stroke:none;" d="M145 75L146 76L145 75z"/>
<path style="fill:#afd1e5; stroke:none;" d="M230.667 75.3333L231.333 75.6667L230.667 75.3333z"/>
<path style="fill:#989898; stroke:none;" d="M343 75L344 76L343 75z"/>
<path style="fill:#afd1e5; stroke:none;" d="M358 75L358 78L359 78L358 75M365.333 75.6667L365.667 76.3333L365.333 75.6667M128 76L129 77L128 76M145.333 76.6667L145.667 77.3333L145.333 76.6667z"/>
<path style="fill:#989898; stroke:none;" d="M207 76L208 77L207 76z"/>
<path style="fill:#afd1e5; stroke:none;" d="M233 76L234 77L233 76M326 76L327 77L326 76M381.333 76.6667L381.667 77.3333L381.333 76.6667M173 77L173 78L196 78L196 88L173 88L173 89L197 89L197 77L173 77M207 77L208 78L207 77z"/>
<path style="fill:#989898; stroke:none;" d="M235 77L236 78L235 77z"/>
<path style="fill:#afd1e5; stroke:none;" d="M236 77L237 78L236 77M342.333 77.6667L342.667 78.3333L342.333 77.6667M505.333 77.6667L505.667 78.3333L505.333 77.6667z"/>
<path style="fill:#989898; stroke:none;" d="M46 78L47 79L46 78M61 78L62 79L61 78z"/>
<path style="fill:#afd1e5; stroke:none;" d="M126 78L127 79L126 78M238.667 78.3333L239.333 78.6667L238.667 78.3333M521 78L522 79L521 78M44 79L45 80L44 79z"/>
<path style="fill:#989898; stroke:none;" d="M45 79L46 80L45 79z"/>
<path style="fill:#afd1e5; stroke:none;" d="M61 79L62 80L61 79M113 79L113 80L123 80L113 79z"/>
<path style="fill:#989898; stroke:none;" d="M123 79L124 80L123 79z"/>
<path style="fill:#afd1e5; stroke:none;" d="M144 79L145 80L144 79M208 79L209 80L208 79M241 79L242 80L241 79M311 79L311 84L312 84L311 79z"/>
<path style="fill:#989898; stroke:none;" d="M357 79L358 80L357 79z"/>
<path style="fill:#afd1e5; stroke:none;" d="M366.333 79.6667L366.667 80.3333L366.333 79.6667z"/>
<path style="fill:#989898; stroke:none;" d="M428 79L429 80L428 79M522 79L523 80L522 79z"/>
<path style="fill:#afd1e5; stroke:none;" d="M523 79L524 80L523 79M42 80L42 91L43 91L42 80z"/>
<path style="fill:#989898; stroke:none;" d="M143 80L144 81L143 80M209 80L210 81L209 80z"/>
<path style="fill:#afd1e5; stroke:none;" d="M243 80L244 81L243 80M341.333 80.6667L341.667 81.3333L341.333 80.6667M357.333 80.6667L357.667 81.3333L357.333 80.6667M382.333 80.6667L382.667 81.3333L382.333 80.6667M426 80L427 81L426 80M506 80L507 81L506 80z"/>
<path style="fill:#989898; stroke:none;" d="M524 80L525 81L524 80z"/>
<path style="fill:#afd1e5; stroke:none;" d="M60 81L61 82L60 81M245 81L246 82L245 81z"/>
<path style="fill:#989898; stroke:none;" d="M414 81L415 82L414 81M507 81L508 82L507 81M59 82L60 83L59 82z"/>
<path style="fill:#afd1e5; stroke:none;" d="M246 82L247 83L246 82M445.333 82.6667L445.667 83.3333L445.333 82.6667M58 83L59 84L58 83M140 83L141 84L140 83z"/>
<path style="fill:#989898; stroke:none;" d="M212 83L213 84L212 83M356 83L357 84L356 83z"/>
<path style="fill:#afd1e5; stroke:none;" d="M367.333 83.6667L367.667 84.3333L367.333 83.6667M383.333 83.6667L383.667 84.3333L383.333 83.6667z"/>
<path style="fill:#989898; stroke:none;" d="M509 83L510 84L509 83M55 84L56 85L55 84z"/>
<path style="fill:#afd1e5; stroke:none;" d="M56 84L57 85L56 84M138.667 84.3333L139.333 84.6667L138.667 84.3333M213 84L214 85L213 84M249 84L250 85L249 84M340.333 84.6667L340.667 85.3333L340.333 84.6667M356.333 84.6667L356.667 85.3333L356.333 84.6667M510 84L511 85L510 84z"/>
<path style="fill:#989898; stroke:none;" d="M511 84L512 85L511 84z"/>
<path style="fill:#afd1e5; stroke:none;" d="M53 85L54 86L53 85M134 87L137 85L134 87M214 85L215 86L214 85M444 85L445 86L444 85M513 85L514 86L513 85z"/>
<path style="fill:#989898; stroke:none;" d="M514 85L515 86L514 85M54 86L55 87L54 86z"/>
<path style="fill:#afd1e5; stroke:none;" d="M55 86L56 87L55 86M216 86L217 87L216 86M312.333 86.6667L312.667 87.3333L312.333 86.6667M326.333 86.6667L326.667 87.3333L326.333 86.6667M511 86L512 87L511 86z"/>
<path style="fill:#989898; stroke:none;" d="M512 86L513 87L512 86z"/>
<path style="fill:#afd1e5; stroke:none;" d="M57 87L58 88L57 87M137 87L138 88L137 87M218 87L219 88L218 87M251 87L252 88L251 87M339.333 87.6667L339.667 88.3333L339.333 87.6667z"/>
<path style="fill:#989898; stroke:none;" d="M355 87L356 88L355 87z"/>
<path style="fill:#afd1e5; stroke:none;" d="M368 87L369 88L368 87M384 87L385 88L384 87M443 87L444 88L443 87z"/>
<path style="fill:#989898; stroke:none;" d="M510 87L511 88L510 87M58 88L59 89L58 88z"/>
<path style="fill:#afd1e5; stroke:none;" d="M139 88L140 89L139 88M220.667 88.3333L221.333 88.6667L220.667 88.3333M313 88L314 89L313 88z"/>
<path style="fill:#989898; stroke:none;" d="M314 88L315 89L314 88z"/>
<path style="fill:#afd1e5; stroke:none;" d="M324.667 88.3333L325.333 88.6667L324.667 88.3333z"/>
<path style="fill:#989898; stroke:none;" d="M384 88L385 89L384 88z"/>
<path style="fill:#afd1e5; stroke:none;" d="M442 88L443 89L442 88M508 88L509 89L508 88M140 89L141 90L140 89M172 89L172 98L173 98L172 89M223 89L224 90L223 89M252 89L253 90L252 89M317 89L317 90L322 90L317 89M441 89L442 90L441 89M507 89L508 90L507 89z"/>
<path style="fill:#989898; stroke:none;" d="M60 90L61 91L60 90z"/>
<path style="fill:#afd1e5; stroke:none;" d="M141 90L142 91L141 90M225.667 90.3333L226.333 90.6667L225.667 90.3333M385.333 90.6667L385.667 91.3333L385.333 90.6667M440 90L441 91L440 90M506 90L507 91L506 90z"/>
<path style="fill:#989898; stroke:none;" d="M524 90L525 91L524 90z"/>
<path style="fill:#afd1e5; stroke:none;" d="M44 91L45 92L44 91z"/>
<path style="fill:#989898; stroke:none;" d="M45 91L46 92L45 91z"/>
<path style="fill:#afd1e5; stroke:none;" d="M61 91L62 92L61 91M113 91L113 92L123 92L113 91M228 91L229 92L228 91M338 91L339 92L338 91M437.667 91.3333L438.333 91.6667L437.667 91.3333z"/>
<path style="fill:#989898; stroke:none;" d="M506 91L507 92L506 91M522 91L523 92L522 91z"/>
<path style="fill:#afd1e5; stroke:none;" d="M523 91L524 92L523 91z"/>
<path style="fill:#989898; stroke:none;" d="M46 92L47 93L46 92M61 92L62 93L61 92z"/>
<path style="fill:#afd1e5; stroke:none;" d="M124 92L125 93L124 92M142 92L143 93L142 92M230.667 92.3333L231.333 92.6667L230.667 92.3333M253 92L253 95L254 95L253 92z"/>
<path style="fill:#989898; stroke:none;" d="M338 92L339 93L338 92z"/>
<path style="fill:#afd1e5; stroke:none;" d="M433 92L433 93L436 93L433 92M505.333 92.6667L505.667 93.3333L505.333 92.6667M521 92L522 93L521 92M46 93L47 94L46 93M125 93L126 94L125 93M233 93L234 94L233 93M386.333 93.6667L386.667 94.3333L386.333 93.6667M414 93L414 115L415 115L414 93M417 93L417 94L431 94L417 93z"/>
<path style="fill:#989898; stroke:none;" d="M520 93L521 94L520 93z"/>
<path style="fill:#afd1e5; stroke:none;" d="M62.3333 94.6667L62.6667 95.3333L62.3333 94.6667M235 94L236 95L235 94M337.333 94.6667L337.667 95.3333L337.333 94.6667z"/>
<path style="fill:#989898; stroke:none;" d="M505 94L506 95L505 94z"/>
<path style="fill:#afd1e5; stroke:none;" d="M520 94L520 120L521 120L520 94z"/>
<path style="fill:#989898; stroke:none;" d="M47 95L47 120L48 120L47 95z"/>
<path style="fill:#afd1e5; stroke:none;" d="M126.333 95.6667L126.667 96.3333L126.333 95.6667M143.333 95.6667L143.667 96.3333L143.333 95.6667M236 95L237 96L236 95z"/>
<path style="fill:#989898; stroke:none;" d="M253 95L254 96L253 95M62 96L62 117L63 117L62 96z"/>
<path style="fill:#afd1e5; stroke:none;" d="M336.333 97.6667L336.667 98.3333L336.333 97.6667M387.333 97.6667L387.667 98.3333L387.333 97.6667M504 97L504 118L505 118L504 97M144.333 98.6667L144.667 99.3333L144.333 98.6667M127 99L127 102L128 102L127 99M315 99L315 100L324 100L315 99z"/>
<path style="fill:#989898; stroke:none;" d="M144 100L145 101L144 100z"/>
<path style="fill:#afd1e5; stroke:none;" d="M173 100L174 101L173 100M236 100L237 101L236 100M253 100L253 105L254 105L253 100M313 100L312 102L313 100z"/>
<path style="fill:#049ed5; stroke:none;" d="M314.434 101.028C306.349 106.592 315.996 119.419 324.566 113.682C332.637 108.279 322.896 95.2036 314.434 101.028z"/>
<path style="fill:#afd1e5; stroke:none;" d="M325 100L326 101L325 100M352 100L352 101L372 101L352 100M388.333 100.667L388.667 101.333L388.333 100.667M174 101L175 102L174 101M208 101L208 102L224 102L208 101M232 101L232 102L235 102L232 101z"/>
<path style="fill:#989898; stroke:none;" d="M235 101L236 102L235 101z"/>
<path style="fill:#afd1e5; stroke:none;" d="M326.333 101.667L326.667 102.333L326.333 101.667M335.333 101.667L335.667 102.333L335.333 101.667M145.333 102.667L145.667 103.333L145.333 102.667M177 102L177 103L200 103L177 102M207 102L207 110L208 110L207 102z"/>
<path style="fill:#989898; stroke:none;" d="M312 102L313 103L312 102M372 102L373 103L372 102z"/>
<path style="fill:#afd1e5; stroke:none;" d="M128 103L128 106L129 106L128 103M351.333 103.667L351.667 104.333L351.333 103.667M372.333 103.667L372.667 104.333L372.333 103.667M200 104L200 114L201 114L200 104M334.333 104.667L334.667 105.333L334.333 104.667M389 104L390 105L389 104M156.333 105.667L156.667 106.333L156.333 105.667M311 105L311 109L312 109L311 105z"/>
<path style="fill:#989898; stroke:none;" d="M389 105L390 106L389 105z"/>
<path style="fill:#afd1e5; stroke:none;" d="M146.333 106.667L146.667 107.333L146.333 106.667M252.333 106.667L252.667 107.333L252.333 106.667z"/>
<path style="fill:#989898; stroke:none;" d="M373 106L374 107L373 106M129 107L130 108L129 107z"/>
<path style="fill:#afd1e5; stroke:none;" d="M333.333 107.667L333.667 108.333L333.333 107.667M350.333 107.667L350.667 108.333L350.333 107.667M373.333 107.667L373.667 108.333L373.333 107.667M390.333 107.667L390.667 108.333L390.333 107.667M129.333 108.667L129.667 109.333L129.333 108.667M157 108L158 109L157 108M251 108L252 109L251 108z"/>
<path style="fill:#989898; stroke:none;" d="M333 109L334 110L333 109z"/>
<path style="fill:#afd1e5; stroke:none;" d="M147.333 110.667L147.667 111.333L147.333 110.667M250 110L251 111L250 110z"/>
<path style="fill:#989898; stroke:none;" d="M374 110L375 111L374 110z"/>
<path style="fill:#afd1e5; stroke:none;" d="M391.333 110.667L391.667 111.333L391.333 110.667M159 111L160 112L159 111M249 111L250 112L249 111M332.333 111.667L332.667 112.333L332.333 111.667M349.333 111.667L349.667 112.333L349.333 111.667M374.333 111.667L374.667 112.333L374.333 111.667M130.333 112.667L130.667 113.333L130.333 112.667M248 112L249 113L248 112M312 112L313 113L312 112M326 112L327 113L326 112z"/>
<path style="fill:#989898; stroke:none;" d="M391 112L392 113L391 112z"/>
<path style="fill:#afd1e5; stroke:none;" d="M148.333 113.667L148.667 114.333L148.333 113.667M162 113L163 114L162 113M207 113L208 114L207 113M246 113L247 114L246 113M164.667 114.333L165.333 114.667L164.667 114.333M193 114L193 115L200 115L193 114M210 114L210 115L213 115L210 114z"/>
<path style="fill:#989898; stroke:none;" d="M213 114L214 115L213 114z"/>
<path style="fill:#afd1e5; stroke:none;" d="M243.667 114.333L244.333 114.667L243.667 114.333M314.667 114.333L315.333 114.667L314.667 114.333M323.667 114.333L324.333 114.667L323.667 114.333M331 114L332 115L331 114z"/>
<path style="fill:#989898; stroke:none;" d="M375 114L376 115L375 114z"/>
<path style="fill:#afd1e5; stroke:none;" d="M392 114L393 115L392 114M168 115L168 116L185 116L168 115M216 115L216 116L222 116L216 115M237 115L237 116L241 116L237 115M227 116L227 117L232 117L227 116M63 118L64 119L63 118z"/>
<path style="fill:#989898; stroke:none;" d="M504 118L505 119L504 118M64 119L65 120L64 119z"/>
<path style="fill:#afd1e5; stroke:none;" d="M65 119L65 120L69 120L65 119M499 119L499 120L503 120L499 119z"/>
<path style="fill:#989898; stroke:none;" d="M503 119L504 120L503 119z"/>
<path style="fill:#afd1e5; stroke:none;" d="M47 120L48 121L47 120M498 120L498 130L499 130L498 120z"/>
<path style="fill:#989898; stroke:none;" d="M519 121L520 122L519 121M48 122L49 123L48 122z"/>
<path style="fill:#afd1e5; stroke:none;" d="M519 122L520 123L519 122M48 123L49 124L48 123z"/>
<path style="fill:#989898; stroke:none;" d="M49 124L50 125L49 124z"/>
<path style="fill:#afd1e5; stroke:none;" d="M518 124L519 125L518 124z"/>
<path style="fill:#989898; stroke:none;" d="M517 125L518 126L517 125M516 126L517 127L516 126M52 127L53 128L52 127z"/>
<path style="fill:#afd1e5; stroke:none;" d="M515 127L516 128L515 127M53 128L54 129L53 128z"/>
<path style="fill:#989898; stroke:none;" d="M54 128L55 129L54 128M513 128L514 129L513 128z"/>
<path style="fill:#afd1e5; stroke:none;" d="M55 129L56 130L55 129z"/>
<path style="fill:#989898; stroke:none;" d="M56.6667 129.333L57.3333 129.667L56.6667 129.333M510 129L511 130L510 129z"/>
<path style="fill:#afd1e5; stroke:none;" d="M511 129L512 130L511 129M59 130L59 131L66 131L59 130M501 130L501 131L508 131L501 130z"/>
</svg>
