<?xml version="1.0" standalone="no"?>
<!DOCTYPE svg PUBLIC "-//W3C//DTD SVG 20010904//EN"
 "http://www.w3.org/TR/2001/REC-SVG-20010904/DTD/svg10.dtd">
<svg version="1.0" xmlns="http://www.w3.org/2000/svg"
 width="372.000000pt" height="372.000000pt" viewBox="0 0 372.000000 372.000000"
 preserveAspectRatio="xMidYMid meet">
<metadata>
Created by potrace 1.10, written by Peter Selinger 2001-2011
</metadata>
<g transform="translate(0.000000,372.000000) scale(0.100000,-0.100000)"
fill="#47a337" stroke="none">
<path d="M1654 3441 c-45 -5 -86 -11 -92 -15 -5 -3 -36 -10 -69 -15 -71 -11
-228 -67 -343 -123 -76 -37 -171 -96 -285 -178 -63 -45 -207 -189 -260 -260
-27 -36 -52 -67 -55 -70 -5 -5 -59 -88 -88 -135 -32 -53 -112 -229 -112 -247
0 -8 -4 -18 -9 -23 -9 -9 -14 -25 -41 -135 -26 -106 -32 -142 -42 -262 -6 -86
-6 -170 0 -255 10 -121 16 -157 42 -263 27 -110 32 -126 41 -134 5 -6 9 -16 9
-24 0 -18 80 -194 112 -247 29 -47 83 -130 88 -135 3 -3 28 -34 55 -70 63 -84
203 -221 266 -262 14 -9 32 -23 40 -30 49 -46 181 -120 339 -191 55 -24 217
-74 305 -94 101 -22 492 -25 565 -4 25 7 68 17 95 21 51 9 137 34 167 51 10 5
22 9 28 9 16 0 198 88 265 128 200 119 414 329 533 524 41 67 142 272 142 288
0 5 6 24 14 42 39 91 73 267 81 423 7 113 -6 326 -24 405 -39 175 -59 235
-126 376 -114 239 -278 440 -482 592 -136 100 -217 147 -358 204 -27 11 -57
23 -65 28 -9 4 -30 11 -49 15 -18 4 -44 13 -59 21 -15 8 -39 14 -54 14 -15 0
-53 7 -85 15 -68 19 -364 28 -489 16z m-300 -627 c13 -5 16 -24 16 -109 0
-116 0 -115 -76 -115 -25 0 -58 -7 -73 -14 -25 -13 -29 -23 -39 -88 -6 -40
-13 -144 -15 -230 -3 -92 -9 -163 -15 -171 -6 -7 -14 -32 -18 -55 -3 -23 -13
-47 -20 -53 -8 -6 -14 -17 -14 -23 0 -6 -21 -30 -45 -54 -25 -24 -45 -45 -45
-46 0 -2 16 -20 36 -41 45 -48 84 -109 84 -132 0 -10 7 -30 14 -45 17 -33 23
-81 36 -303 6 -93 13 -177 16 -186 5 -19 71 -39 107 -32 14 3 34 0 46 -6 19
-11 21 -20 21 -111 0 -63 -4 -101 -11 -106 -7 -4 -56 -7 -110 -7 -73 1 -103 5
-120 17 -13 9 -30 16 -37 16 -26 0 -74 43 -107 94 -42 66 -55 148 -64 391 -10
252 -29 292 -153 319 l-53 12 -3 117 -3 116 28 6 c157 33 168 50 183 295 14
219 30 351 46 377 8 12 14 28 14 35 0 13 31 50 66 78 24 19 91 48 124 53 42 7
167 7 184 1z m1256 -23 c121 -54 170 -152 170 -343 1 -117 14 -270 29 -341 19
-88 41 -106 164 -132 23 -4 27 -11 27 -38 1 -17 2 -59 4 -92 5 -100 0 -113
-47 -120 -54 -10 -99 -29 -120 -53 -24 -27 -44 -158 -52 -352 -4 -85 -14 -182
-22 -214 -37 -146 -125 -212 -298 -222 -119 -8 -126 -3 -129 97 -4 96 1 118
28 123 107 21 136 29 152 47 15 17 19 47 25 207 11 273 36 366 119 447 22 22
40 42 40 45 0 4 -20 27 -43 52 -55 56 -87 122 -87 175 0 23 -7 76 -15 119 -8
42 -18 137 -21 209 -4 72 -12 138 -18 147 -19 26 -53 38 -105 38 -81 0 -81 0
-81 104 0 98 4 111 35 119 44 13 200 -1 245 -22z m-1145 -814 c28 -15 47 -37
64 -70 21 -43 22 -53 12 -86 -14 -50 -46 -82 -98 -103 -40 -15 -46 -15 -85 0
-24 9 -50 23 -59 32 -24 22 -49 75 -49 105 0 61 86 144 150 144 14 1 43 -9 65
-22z m455 3 c42 -22 80 -80 80 -123 0 -98 -95 -167 -190 -138 -60 18 -90 61
-90 129 0 118 99 183 200 132z m448 1 c64 -33 87 -65 87 -124 0 -63 -28 -108
-87 -138 -37 -19 -42 -19 -87 -4 -68 22 -103 62 -109 124 -6 62 21 110 76 139
49 25 75 26 120 3z"/>
</g>
</svg>
