<svg version="1.1" id="Layer_1" xmlns="http://www.w3.org/2000/svg" xmlns:xlink="http://www.w3.org/1999/xlink" x="0px" y="0px"
	 width="100%" viewBox="0 0 573 175" enable-background="new 0 0 573 175" xml:space="preserve">
<path fill="#FEFFFF" opacity="1.000000" stroke="none" 
	d="
M474.000000,176.000000 
	C316.000000,176.000000 158.500000,176.000000 1.000000,176.000000 
	C1.000000,117.666664 1.000000,59.333332 1.000000,1.000000 
	C192.000000,1.000000 383.000000,1.000000 574.000000,1.000000 
	C574.000000,59.333332 574.000000,117.666664 574.000000,176.000000 
	C540.833313,176.000000 507.666656,176.000000 474.000000,176.000000 
M98.702530,115.886902 
	C103.655190,115.886902 108.607849,115.886902 114.186638,115.886902 
	C114.186638,107.838654 114.186638,100.128609 114.186638,92.252853 
	C115.816864,92.252853 116.809822,92.256996 117.802727,92.252197 
	C125.912605,92.213028 126.478027,92.646225 128.337311,100.317329 
	C129.585175,105.465866 130.835831,110.613724 132.058578,115.652069 
	C137.897629,115.652069 143.445526,115.652069 149.922699,115.652069 
	C144.799072,105.764610 148.078476,92.907913 136.740524,87.247482 
	C139.302734,85.425232 142.602554,84.062851 144.431305,81.605637 
	C151.932495,71.526566 145.734375,55.385811 133.393097,54.220722 
	C121.761429,53.122623 109.944664,53.985119 97.948631,53.985119 
	C97.948631,74.701477 97.948631,94.989708 98.702530,115.886902 
M340.343994,89.801102 
	C337.839172,98.376183 335.334351,106.951256 332.745789,115.813004 
	C338.660736,115.813004 344.105682,115.813004 349.694427,115.813004 
	C350.771606,111.674026 351.668701,107.629562 352.947327,103.709541 
	C353.291565,102.654335 354.765747,101.284523 355.771667,101.241646 
	C361.381195,101.002510 367.006226,101.126755 372.601166,101.126755 
	C373.947113,106.281731 375.158783,110.922379 376.422363,115.761841 
	C381.963318,115.761841 387.400970,115.761841 392.822388,115.761841 
	C392.897675,115.313194 393.072357,114.953285 392.989563,114.668137 
	C387.573700,96.015747 382.157715,77.363335 376.682831,58.728233 
	C375.721771,55.457104 373.392944,53.923489 369.937744,53.980141 
	C365.613403,54.051044 361.276794,54.182167 356.964294,53.945168 
	C352.508972,53.700321 350.261292,55.785057 349.111359,59.876099 
	C346.371033,69.624924 343.470062,79.328590 340.343994,89.801102 
M179.735016,103.280037 
	C173.419144,102.550903 172.395828,100.069145 174.466721,89.551163 
	C182.037216,89.551163 189.752945,89.551163 197.360031,89.551163 
	C197.360031,85.488350 197.360031,82.075081 197.360031,78.206085 
	C189.424774,78.206085 181.837631,78.206085 174.342255,78.206085 
	C172.569336,67.698418 173.369034,66.716461 183.239319,66.716202 
	C189.036911,66.716049 194.834503,66.716171 200.905182,66.716171 
	C201.176697,62.535809 201.417923,58.821583 201.727814,54.050323 
	C189.835571,54.050323 178.543152,53.652767 167.298096,54.210453 
	C161.266525,54.509590 157.114594,60.053204 157.035706,66.474243 
	C156.884369,78.793755 156.858139,91.118416 157.040924,103.437073 
	C157.151016,110.856361 162.235138,115.775032 169.769196,116.080803 
	C174.423782,116.269707 179.094559,116.222618 183.753433,116.102119 
	C189.653885,115.949516 195.549652,115.614777 201.754898,115.345238 
	C201.430313,110.898285 201.168228,107.307732 200.874496,103.283623 
	C193.955261,103.283623 187.322968,103.283623 179.735016,103.280037 
M229.570587,52.881897 
	C226.267059,53.204903 222.926376,53.317356 219.667343,53.892517 
	C211.618988,55.312916 208.695892,58.551594 207.612640,66.780960 
	C206.192993,77.565956 209.643173,83.900696 219.552994,88.271561 
	C224.562500,90.481071 229.836502,92.138512 234.684235,94.639923 
	C236.265564,95.455887 237.409653,98.081009 237.666321,100.022469 
	C237.767029,100.784195 234.999496,102.354507 233.334641,102.806046 
	C231.468307,103.312225 229.371506,102.987854 227.374939,102.991096 
	C221.279709,103.001015 215.184448,102.994698 209.096359,102.994698 
	C208.753281,106.071709 208.135422,108.732788 208.302536,111.343613 
	C208.384628,112.626244 209.737549,114.681007 210.828644,114.913048 
	C221.298187,117.139549 231.869080,118.097008 242.507660,116.034195 
	C249.663971,114.646591 252.923828,111.379166 254.310364,104.341095 
	C256.696198,92.230415 252.776321,84.844536 241.364838,80.173805 
	C236.600693,78.223846 231.629013,76.722816 227.038422,74.440834 
	C225.569504,73.710632 224.269669,71.103088 224.323135,69.399399 
	C224.357559,68.302422 226.866608,66.844231 228.507507,66.353233 
	C230.350052,65.801895 232.463898,66.129082 234.459839,66.123817 
	C240.220963,66.108620 245.982162,66.118446 251.837997,66.118446 
	C252.217865,62.364094 252.546814,59.113174 252.999451,54.639725 
	C245.292282,54.036369 237.917633,53.459042 229.570587,52.881897 
M438.170990,55.018795 
	C425.232330,51.417141 412.210663,53.317974 399.004120,54.004837 
	C399.004120,74.798576 399.004120,95.165939 399.004120,115.656540 
	C404.472015,115.656540 409.679688,115.656540 415.394501,115.656540 
	C415.394501,108.259476 415.394501,101.199493 415.394501,94.070839 
	C421.226105,94.070839 426.558014,94.332092 431.854736,94.011299 
	C440.388977,93.494438 445.476990,90.128036 446.553528,83.134216 
	C447.472046,77.167145 447.258331,70.910553 446.675659,64.865860 
	C446.246674,60.415455 443.384430,56.952942 438.170990,55.018795 
M284.500000,53.999985 
	C276.242096,53.999985 267.984161,53.999985 259.672699,53.999985 
	C259.672699,58.659058 259.672699,62.707676 259.672699,67.211685 
	C265.612885,67.211685 271.190094,67.211685 277.230438,67.211685 
	C277.230438,83.713707 277.230438,99.757561 277.230438,115.606667 
	C283.107758,115.606667 288.497589,115.606667 294.165894,115.606667 
	C294.165894,99.292717 294.165894,83.370544 294.165894,66.955788 
	C300.182068,66.955788 305.914520,66.955788 311.688477,66.955788 
	C311.688477,62.399136 311.688477,58.347137 311.688477,53.999985 
	C302.752899,53.999985 294.126434,53.999985 284.500000,53.999985 
M521.416077,117.826256 
	C521.427429,111.503265 521.170959,105.162376 521.591736,98.866753 
	C521.744141,96.585808 524.003113,94.503616 524.437073,92.170090 
	C525.105225,88.577415 526.591431,82.912621 524.940857,81.578506 
	C521.561523,78.847115 521.867371,76.052963 521.807007,72.865898 
	C521.721924,68.374710 521.915100,63.875793 521.747437,59.389217 
	C521.505127,52.906651 517.995728,48.156097 512.056335,47.159363 
	C508.242401,46.519318 504.233795,47.039291 500.300262,47.039291 
	C500.300262,50.444412 500.300262,53.537048 500.300262,56.566566 
	C506.085907,57.635738 506.147919,57.687580 506.206604,63.305130 
	C506.243103,66.799126 506.306549,70.296806 506.193695,73.787521 
	C505.993469,79.979904 507.812439,84.799332 515.652649,86.605217 
	C507.031464,89.117607 505.513214,94.876640 505.828644,101.775246 
	C505.995667,105.428383 505.650513,109.110222 505.909729,112.752548 
	C506.247925,117.504288 505.854706,121.481857 499.797363,121.304245 
	C499.797363,124.671524 499.797363,127.623604 499.797363,130.528000 
	C513.094299,132.888351 519.973938,129.045212 521.416077,117.826256 
M60.313095,83.736305 
	C61.230167,81.823189 62.731956,79.973206 62.946682,77.984268 
	C63.445385,73.364967 63.584408,68.666908 63.376511,64.022820 
	C63.180260,59.639000 63.847878,56.369598 69.253067,56.635681 
	C69.253067,53.271507 69.253067,50.312771 69.253067,46.906471 
	C66.630859,46.785881 64.168083,46.507988 61.717220,46.589256 
	C52.537327,46.893642 48.035271,51.498287 47.869907,60.662510 
	C47.803768,64.327888 47.965263,67.999512 47.826458,71.660835 
	C47.689369,75.276779 49.211716,79.592049 44.175972,81.449707 
	C43.873978,81.561111 43.596924,82.334572 43.659489,82.746628 
	C44.206417,86.348557 41.516392,90.732964 46.595993,93.333092 
	C47.689266,93.892715 48.096394,96.555191 48.140858,98.266640 
	C48.313950,104.928650 48.098087,111.600349 48.247196,118.263512 
	C48.404884,125.309921 52.510227,130.097336 59.276169,130.909943 
	C62.670761,131.317627 66.154739,130.981033 69.785370,130.981033 
	C69.785370,127.347809 69.785370,124.248756 69.785370,120.773491 
	C64.669365,121.607071 63.494987,118.924446 63.739349,114.627205 
	C63.966072,110.640228 63.676640,106.626434 63.811996,102.631142 
	C64.051796,95.553093 63.047230,89.210976 54.753357,86.742027 
	C56.785450,85.707710 58.261017,84.956657 60.313095,83.736305 
M455.753418,96.499596 
	C455.753418,102.900421 455.753418,109.301247 455.753418,115.742195 
	C461.533569,115.742195 466.608093,115.742195 471.868103,115.742195 
	C471.868103,95.145988 471.868103,74.806313 471.868103,54.336361 
	C466.414581,54.336361 461.208801,54.336361 456.081207,54.336361 
	C455.937988,54.990116 455.807220,55.309692 455.806610,55.629513 
	C455.781525,68.919601 455.768097,82.209702 455.753418,96.499596 
M317.852264,90.091644 
	C321.040100,89.311127 325.719208,89.577225 327.138214,87.555313 
	C331.525269,81.304459 327.202026,74.696030 319.547638,74.874260 
	C316.629669,74.942207 313.842194,75.043434 313.030426,78.748886 
	C311.804138,84.346321 313.115265,88.251801 317.852264,90.091644 
M326.955322,114.359802 
	C327.278717,111.118614 328.163696,107.790550 327.681580,104.673981 
	C327.450836,103.182571 324.706268,101.163528 322.964386,101.018799 
	C319.636597,100.742302 315.271271,99.071426 313.331390,103.639618 
	C310.006622,111.468948 314.078705,116.822517 322.500610,115.936180 
	C323.793274,115.800125 325.044800,115.273521 326.955322,114.359802 
z"/>
<path fill="#029DD5" opacity="1.000000" stroke="none" 
	d="
M98.325577,115.582413 
	C97.948631,94.989708 97.948631,74.701477 97.948631,53.985119 
	C109.944664,53.985119 121.761429,53.122623 133.393097,54.220722 
	C145.734375,55.385811 151.932495,71.526566 144.431305,81.605637 
	C142.602554,84.062851 139.302734,85.425232 136.740524,87.247482 
	C148.078476,92.907913 144.799072,105.764610 149.922699,115.652069 
	C143.445526,115.652069 137.897629,115.652069 132.058578,115.652069 
	C130.835831,110.613724 129.585175,105.465866 128.337311,100.317329 
	C126.478027,92.646225 125.912605,92.213028 117.802727,92.252197 
	C116.809822,92.256996 115.816864,92.252853 114.186638,92.252853 
	C114.186638,100.128609 114.186638,107.838654 114.186638,115.886902 
	C108.607849,115.886902 103.655190,115.886902 98.325577,115.582413 
M114.858772,65.251038 
	C114.477715,70.184486 114.096649,75.117935 113.712982,80.085106 
	C118.180984,80.085106 121.684082,80.408844 125.080254,79.946716 
	C126.745300,79.720146 128.967178,78.387024 129.638336,76.948685 
	C132.656250,70.481033 129.289307,65.339088 122.222923,65.122940 
	C120.077003,65.057304 117.927048,65.123474 114.858772,65.251038 
z"/>
<path fill="#039DD5" opacity="1.000000" stroke="none" 
	d="
M340.489014,89.425797 
	C343.470062,79.328590 346.371033,69.624924 349.111359,59.876099 
	C350.261292,55.785057 352.508972,53.700321 356.964294,53.945168 
	C361.276794,54.182167 365.613403,54.051044 369.937744,53.980141 
	C373.392944,53.923489 375.721771,55.457104 376.682831,58.728233 
	C382.157715,77.363335 387.573700,96.015747 392.989563,114.668137 
	C393.072357,114.953285 392.897675,115.313194 392.822388,115.761841 
	C387.400970,115.761841 381.963318,115.761841 376.422363,115.761841 
	C375.158783,110.922379 373.947113,106.281731 372.601166,101.126755 
	C367.006226,101.126755 361.381195,101.002510 355.771667,101.241646 
	C354.765747,101.284523 353.291565,102.654335 352.947327,103.709541 
	C351.668701,107.629562 350.771606,111.674026 349.694427,115.813004 
	C344.105682,115.813004 338.660736,115.813004 332.745789,115.813004 
	C335.334351,106.951256 337.839172,98.376183 340.489014,89.425797 
M366.931335,78.430069 
	C365.925598,74.307335 364.919861,70.184608 363.914124,66.061874 
	C363.300507,66.102951 362.686890,66.144028 362.073273,66.185104 
	C360.307312,73.652138 358.541351,81.119171 356.744324,88.717598 
	C361.392883,88.717598 365.276215,88.717598 369.463135,88.717598 
	C368.608795,85.322754 367.843079,82.280151 366.931335,78.430069 
z"/>
<path fill="#089ED6" opacity="1.000000" stroke="none" 
	d="
M180.212845,103.281830 
	C187.322968,103.283623 193.955261,103.283623 200.874496,103.283623 
	C201.168228,107.307732 201.430313,110.898285 201.754898,115.345238 
	C195.549652,115.614777 189.653885,115.949516 183.753433,116.102119 
	C179.094559,116.222618 174.423782,116.269707 169.769196,116.080803 
	C162.235138,115.775032 157.151016,110.856361 157.040924,103.437073 
	C156.858139,91.118416 156.884369,78.793755 157.035706,66.474243 
	C157.114594,60.053204 161.266525,54.509590 167.298096,54.210453 
	C178.543152,53.652767 189.835571,54.050323 201.727814,54.050323 
	C201.417923,58.821583 201.176697,62.535809 200.905182,66.716171 
	C194.834503,66.716171 189.036911,66.716049 183.239319,66.716202 
	C173.369034,66.716461 172.569336,67.698418 174.342255,78.206085 
	C181.837631,78.206085 189.424774,78.206085 197.360031,78.206085 
	C197.360031,82.075081 197.360031,85.488350 197.360031,89.551163 
	C189.752945,89.551163 182.037216,89.551163 174.466721,89.551163 
	C172.395828,100.069145 173.419144,102.550903 180.212845,103.281830 
z"/>
<path fill="#039DD5" opacity="1.000000" stroke="none" 
	d="
M230.056793,52.881805 
	C237.917633,53.459042 245.292282,54.036369 252.999451,54.639725 
	C252.546814,59.113174 252.217865,62.364094 251.837997,66.118446 
	C245.982162,66.118446 240.220963,66.108620 234.459839,66.123817 
	C232.463898,66.129082 230.350052,65.801895 228.507507,66.353233 
	C226.866608,66.844231 224.357559,68.302422 224.323135,69.399399 
	C224.269669,71.103088 225.569504,73.710632 227.038422,74.440834 
	C231.629013,76.722816 236.600693,78.223846 241.364838,80.173805 
	C252.776321,84.844536 256.696198,92.230415 254.310364,104.341095 
	C252.923828,111.379166 249.663971,114.646591 242.507660,116.034195 
	C231.869080,118.097008 221.298187,117.139549 210.828644,114.913048 
	C209.737549,114.681007 208.384628,112.626244 208.302536,111.343613 
	C208.135422,108.732788 208.753281,106.071709 209.096359,102.994698 
	C215.184448,102.994698 221.279709,103.001015 227.374939,102.991096 
	C229.371506,102.987854 231.468307,103.312225 233.334641,102.806046 
	C234.999496,102.354507 237.767029,100.784195 237.666321,100.022469 
	C237.409653,98.081009 236.265564,95.455887 234.684235,94.639923 
	C229.836502,92.138512 224.562500,90.481071 219.552994,88.271561 
	C209.643173,83.900696 206.192993,77.565956 207.612640,66.780960 
	C208.695892,58.551594 211.618988,55.312916 219.667343,53.892517 
	C222.926376,53.317356 226.267059,53.204903 230.056793,52.881805 
z"/>
<path fill="#029DD5" opacity="1.000000" stroke="none" 
	d="
M438.539551,55.151440 
	C443.384430,56.952942 446.246674,60.415455 446.675659,64.865860 
	C447.258331,70.910553 447.472046,77.167145 446.553528,83.134216 
	C445.476990,90.128036 440.388977,93.494438 431.854736,94.011299 
	C426.558014,94.332092 421.226105,94.070839 415.394501,94.070839 
	C415.394501,101.199493 415.394501,108.259476 415.394501,115.656540 
	C409.679688,115.656540 404.472015,115.656540 399.004120,115.656540 
	C399.004120,95.165939 399.004120,74.798576 399.004120,54.004837 
	C412.210663,53.317974 425.232330,51.417141 438.539551,55.151440 
M424.880554,65.205040 
	C421.778564,65.205040 418.676605,65.205040 415.376953,65.205040 
	C415.376953,71.048897 415.376953,76.431541 415.376953,82.258568 
	C418.264160,82.258568 420.878418,82.300919 423.490753,82.248535 
	C427.308563,82.171989 430.286407,81.088905 430.887787,76.601105 
	C431.759674,70.094643 430.594543,67.346375 424.880554,65.205040 
z"/>
<path fill="#019CD5" opacity="1.000000" stroke="none" 
	d="
M285.000000,53.999985 
	C294.126434,53.999985 302.752899,53.999985 311.688477,53.999985 
	C311.688477,58.347137 311.688477,62.399136 311.688477,66.955788 
	C305.914520,66.955788 300.182068,66.955788 294.165894,66.955788 
	C294.165894,83.370544 294.165894,99.292717 294.165894,115.606667 
	C288.497589,115.606667 283.107758,115.606667 277.230438,115.606667 
	C277.230438,99.757561 277.230438,83.713707 277.230438,67.211685 
	C271.190094,67.211685 265.612885,67.211685 259.672699,67.211685 
	C259.672699,62.707676 259.672699,58.659058 259.672699,53.999985 
	C267.984161,53.999985 276.242096,53.999985 285.000000,53.999985 
z"/>
<path fill="#686868" opacity="1.000000" stroke="none" 
	d="
M521.369629,118.255661 
	C519.973938,129.045212 513.094299,132.888351 499.797363,130.528000 
	C499.797363,127.623604 499.797363,124.671524 499.797363,121.304245 
	C505.854706,121.481857 506.247925,117.504288 505.909729,112.752548 
	C505.650513,109.110222 505.995667,105.428383 505.828644,101.775246 
	C505.513214,94.876640 507.031464,89.117607 515.652649,86.605217 
	C507.812439,84.799332 505.993469,79.979904 506.193695,73.787521 
	C506.306549,70.296806 506.243103,66.799126 506.206604,63.305130 
	C506.147919,57.687580 506.085907,57.635738 500.300262,56.566566 
	C500.300262,53.537048 500.300262,50.444412 500.300262,47.039291 
	C504.233795,47.039291 508.242401,46.519318 512.056335,47.159363 
	C517.995728,48.156097 521.505127,52.906651 521.747437,59.389217 
	C521.915100,63.875793 521.721924,68.374710 521.807007,72.865898 
	C521.867371,76.052963 521.561523,78.847115 524.940857,81.578506 
	C526.591431,82.912621 525.105225,88.577415 524.437073,92.170090 
	C524.003113,94.503616 521.744141,96.585808 521.591736,98.866753 
	C521.170959,105.162376 521.427429,111.503265 521.369629,118.255661 
z"/>
<path fill="#696969" opacity="1.000000" stroke="none" 
	d="
M60.024837,83.970955 
	C58.261017,84.956657 56.785450,85.707710 54.753357,86.742027 
	C63.047230,89.210976 64.051796,95.553093 63.811996,102.631142 
	C63.676640,106.626434 63.966072,110.640228 63.739349,114.627205 
	C63.494987,118.924446 64.669365,121.607071 69.785370,120.773491 
	C69.785370,124.248756 69.785370,127.347809 69.785370,130.981033 
	C66.154739,130.981033 62.670761,131.317627 59.276169,130.909943 
	C52.510227,130.097336 48.404884,125.309921 48.247196,118.263512 
	C48.098087,111.600349 48.313950,104.928650 48.140858,98.266640 
	C48.096394,96.555191 47.689266,93.892715 46.595993,93.333092 
	C41.516392,90.732964 44.206417,86.348557 43.659489,82.746628 
	C43.596924,82.334572 43.873978,81.561111 44.175972,81.449707 
	C49.211716,79.592049 47.689369,75.276779 47.826458,71.660835 
	C47.965263,67.999512 47.803768,64.327888 47.869907,60.662510 
	C48.035271,51.498287 52.537327,46.893642 61.717220,46.589256 
	C64.168083,46.507988 66.630859,46.785881 69.253067,46.906471 
	C69.253067,50.312771 69.253067,53.271507 69.253067,56.635681 
	C63.847878,56.369598 63.180260,59.639000 63.376511,64.022820 
	C63.584408,68.666908 63.445385,73.364967 62.946682,77.984268 
	C62.731956,79.973206 61.230167,81.823189 60.024837,83.970955 
z"/>
<path fill="#009CD5" opacity="1.000000" stroke="none" 
	d="
M455.753326,95.999695 
	C455.768097,82.209702 455.781525,68.919601 455.806610,55.629513 
	C455.807220,55.309692 455.937988,54.990116 456.081207,54.336361 
	C461.208801,54.336361 466.414581,54.336361 471.868103,54.336361 
	C471.868103,74.806313 471.868103,95.145988 471.868103,115.742195 
	C466.608093,115.742195 461.533569,115.742195 455.753418,115.742195 
	C455.753418,109.301247 455.753418,102.900421 455.753326,95.999695 
z"/>
<path fill="#059DD6" opacity="1.000000" stroke="none" 
	d="
M317.412445,90.060013 
	C313.115265,88.251801 311.804138,84.346321 313.030426,78.748886 
	C313.842194,75.043434 316.629669,74.942207 319.547638,74.874260 
	C327.202026,74.696030 331.525269,81.304459 327.138214,87.555313 
	C325.719208,89.577225 321.040100,89.311127 317.412445,90.060013 
z"/>
<path fill="#049DD5" opacity="1.000000" stroke="none" 
	d="
M326.635345,114.643677 
	C325.044800,115.273521 323.793274,115.800125 322.500610,115.936180 
	C314.078705,116.822517 310.006622,111.468948 313.331390,103.639618 
	C315.271271,99.071426 319.636597,100.742302 322.964386,101.018799 
	C324.706268,101.163528 327.450836,103.182571 327.681580,104.673981 
	C328.163696,107.790550 327.278717,111.118614 326.635345,114.643677 
z"/>
<path fill="#FAFDFE" opacity="1.000000" stroke="none" 
	d="
M115.318863,65.190155 
	C117.927048,65.123474 120.077003,65.057304 122.222923,65.122940 
	C129.289307,65.339088 132.656250,70.481033 129.638336,76.948685 
	C128.967178,78.387024 126.745300,79.720146 125.080254,79.946716 
	C121.684082,80.408844 118.180984,80.085106 113.712982,80.085106 
	C114.096649,75.117935 114.477715,70.184486 115.318863,65.190155 
z"/>
<path fill="#F5FAFD" opacity="1.000000" stroke="none" 
	d="
M367.004333,78.833809 
	C367.843079,82.280151 368.608795,85.322754 369.463135,88.717598 
	C365.276215,88.717598 361.392883,88.717598 356.744324,88.717598 
	C358.541351,81.119171 360.307312,73.652138 362.073273,66.185104 
	C362.686890,66.144028 363.300507,66.102951 363.914124,66.061874 
	C364.919861,70.184608 365.925598,74.307335 367.004333,78.833809 
z"/>
<path fill="#F7FBFD" opacity="1.000000" stroke="none" 
	d="
M425.303650,65.260468 
	C430.594543,67.346375 431.759674,70.094643 430.887787,76.601105 
	C430.286407,81.088905 427.308563,82.171989 423.490753,82.248535 
	C420.878418,82.300919 418.264160,82.258568 415.376953,82.258568 
	C415.376953,76.431541 415.376953,71.048897 415.376953,65.205040 
	C418.676605,65.205040 421.778564,65.205040 425.303650,65.260468 
z"/>
</svg>